<svg xmlns="http://www.w3.org/2000/svg" viewBox="0 0 800 380">
  <!-- Background -->
  <rect width="800" height="380" fill="#fafafa"/>
  
  <!-- Title -->
  <text x="400" y="30" text-anchor="middle" font-family="Arial, sans-serif" font-size="18" font-weight="bold" fill="#1f2937">What Does Slope Variance Mean?</text>
  
  <!-- Left Panel: Low Slope Variance -->
  <rect x="30" y="50" width="360" height="300" fill="white" stroke="#e5e7eb" stroke-width="1" rx="8"/>
  <text x="210" y="80" text-anchor="middle" font-family="Arial, sans-serif" font-size="14" font-weight="bold" fill="#374151">Low Slope Variance</text>
  <text x="210" y="98" text-anchor="middle" font-family="Arial, sans-serif" font-size="12" fill="#6b7280">(Everyone changes at similar rates)</text>
  
  <!-- Left axes -->
  <line x1="70" y1="290" x2="350" y2="290" stroke="#374151" stroke-width="1.5"/>
  <line x1="70" y1="290" x2="70" y2="120" stroke="#374151" stroke-width="1.5"/>
  <text x="210" y="320" text-anchor="middle" font-family="Arial, sans-serif" font-size="12" fill="#374151">Time</text>
  <text x="50" y="205" text-anchor="middle" font-family="Arial, sans-serif" font-size="12" fill="#374151" transform="rotate(-90, 50, 205)">Score</text>
  
  <!-- Time labels -->
  <text x="90" y="305" text-anchor="middle" font-family="Arial, sans-serif" font-size="10" fill="#6b7280">1</text>
  <text x="155" y="305" text-anchor="middle" font-family="Arial, sans-serif" font-size="10" fill="#6b7280">2</text>
  <text x="220" y="305" text-anchor="middle" font-family="Arial, sans-serif" font-size="10" fill="#6b7280">3</text>
  <text x="285" y="305" text-anchor="middle" font-family="Arial, sans-serif" font-size="10" fill="#6b7280">4</text>
  <text x="340" y="305" text-anchor="middle" font-family="Arial, sans-serif" font-size="10" fill="#6b7280">5</text>
  
  <!-- Left panel: Similar slopes (low variance) - parallel straight lines -->
  <line x1="90" y1="270" x2="340" y2="210" stroke="#60a5fa" stroke-width="2" opacity="0.6"/>
  <line x1="90" y1="250" x2="340" y2="190" stroke="#60a5fa" stroke-width="2" opacity="0.6"/>
  <line x1="90" y1="230" x2="340" y2="170" stroke="#60a5fa" stroke-width="2" opacity="0.6"/>
  <line x1="90" y1="210" x2="340" y2="150" stroke="#60a5fa" stroke-width="2" opacity="0.7"/>
  <line x1="90" y1="190" x2="340" y2="130" stroke="#60a5fa" stroke-width="2" opacity="0.7"/>
  <line x1="90" y1="170" x2="340" y2="125" stroke="#60a5fa" stroke-width="2" opacity="0.6"/>
  <line x1="90" y1="155" x2="340" y2="140" stroke="#60a5fa" stroke-width="2" opacity="0.5"/>

  <!-- Mean trajectory (thicker, darker) -->
  <line x1="90" y1="215" x2="340" y2="155" stroke="#1d4ed8" stroke-width="3"/>
  
  <!-- Annotation -->
  <text x="210" y="340" text-anchor="middle" font-family="Arial, sans-serif" font-size="11" fill="#1d4ed8">Lines stay roughly parallel</text>
  
  
  <!-- Right Panel: High Slope Variance -->
  <rect x="410" y="50" width="360" height="300" fill="white" stroke="#e5e7eb" stroke-width="1" rx="8"/>
  <text x="590" y="80" text-anchor="middle" font-family="Arial, sans-serif" font-size="14" font-weight="bold" fill="#374151">High Slope Variance</text>
  <text x="590" y="98" text-anchor="middle" font-family="Arial, sans-serif" font-size="12" fill="#6b7280">(People change at very different rates)</text>
  
  <!-- Right axes -->
  <line x1="450" y1="290" x2="730" y2="290" stroke="#374151" stroke-width="1.5"/>
  <line x1="450" y1="290" x2="450" y2="120" stroke="#374151" stroke-width="1.5"/>
  <text x="590" y="320" text-anchor="middle" font-family="Arial, sans-serif" font-size="12" fill="#374151">Time</text>
  <text x="430" y="205" text-anchor="middle" font-family="Arial, sans-serif" font-size="12" fill="#374151" transform="rotate(-90, 430, 205)">Score</text>
  
  <!-- Time labels -->
  <text x="470" y="305" text-anchor="middle" font-family="Arial, sans-serif" font-size="10" fill="#6b7280">1</text>
  <text x="535" y="305" text-anchor="middle" font-family="Arial, sans-serif" font-size="10" fill="#6b7280">2</text>
  <text x="600" y="305" text-anchor="middle" font-family="Arial, sans-serif" font-size="10" fill="#6b7280">3</text>
  <text x="665" y="305" text-anchor="middle" font-family="Arial, sans-serif" font-size="10" fill="#6b7280">4</text>
  <text x="720" y="305" text-anchor="middle" font-family="Arial, sans-serif" font-size="10" fill="#6b7280">5</text>
  
  <!-- Right panel: Diverse slopes (high variance) - straight lines with different angles -->
  <line x1="470" y1="260" x2="720" y2="125" stroke="#f97316" stroke-width="2" opacity="0.7"/>
  <line x1="470" y1="240" x2="720" y2="130" stroke="#f97316" stroke-width="2" opacity="0.6"/>
  <line x1="470" y1="230" x2="720" y2="175" stroke="#f97316" stroke-width="2" opacity="0.7"/>
  <line x1="470" y1="210" x2="720" y2="200" stroke="#f97316" stroke-width="2" opacity="0.6"/>
  <line x1="470" y1="200" x2="720" y2="210" stroke="#f97316" stroke-width="2" opacity="0.7"/>
  <line x1="470" y1="185" x2="720" y2="240" stroke="#f97316" stroke-width="2" opacity="0.6"/>
  <line x1="470" y1="170" x2="720" y2="260" stroke="#f97316" stroke-width="2" opacity="0.7"/>

  <!-- Mean trajectory (thicker, darker) -->
  <line x1="470" y1="215" x2="720" y2="175" stroke="#c2410c" stroke-width="3"/>
  
  <!-- Annotation -->
  <text x="590" y="340" text-anchor="middle" font-family="Arial, sans-serif" font-size="11" fill="#c2410c">Lines "fan out" — some steep, some flat, some decline</text>
  
</svg>