<svg xmlns="http://www.w3.org/2000/svg" viewBox="0 0 800 380">
  <!-- Background -->
  <rect width="800" height="380" fill="#fafafa"/>
  
  <!-- Title -->
  <text x="400" y="30" text-anchor="middle" font-family="Arial, sans-serif" font-size="18" font-weight="bold" fill="#1f2937">What Does Slope Variance Mean?</text>
  
  <!-- Left Panel: Low Slope Variance -->
  <rect x="30" y="50" width="360" height="300" fill="white" stroke="#e5e7eb" stroke-width="1" rx="8"/>
  <text x="210" y="80" text-anchor="middle" font-family="Arial, sans-serif" font-size="14" font-weight="bold" fill="#374151">Low Slope Variance</text>
  <text x="210" y="98" text-anchor="middle" font-family="Arial, sans-serif" font-size="12" fill="#6b7280">(Everyone changes at similar rates)</text>
  
  <!-- Left axes -->
  <line x1="70" y1="290" x2="350" y2="290" stroke="#374151" stroke-width="1.5"/>
  <line x1="70" y1="290" x2="70" y2="120" stroke="#374151" stroke-width="1.5"/>
  <text x="210" y="320" text-anchor="middle" font-family="Arial, sans-serif" font-size="12" fill="#374151">Time</text>
  <text x="50" y="205" text-anchor="middle" font-family="Arial, sans-serif" font-size="12" fill="#374151" transform="rotate(-90, 50, 205)">Score</text>
  
  <!-- Time labels -->
  <text x="90" y="305" text-anchor="middle" font-family="Arial, sans-serif" font-size="10" fill="#6b7280">1</text>
  <text x="155" y="305" text-anchor="middle" font-family="Arial, sans-serif" font-size="10" fill="#6b7280">2</text>
  <text x="220" y="305" text-anchor="middle" font-family="Arial, sans-serif" font-size="10" fill="#6b7280">3</text>
  <text x="285" y="305" text-anchor="middle" font-family="Arial, sans-serif" font-size="10" fill="#6b7280">4</text>
  <text x="340" y="305" text-anchor="middle" font-family="Arial, sans-serif" font-size="10" fill="#6b7280">5</text>
  
  <!-- Left panel: Similar slopes (low variance) - parallel-ish lines -->
  <path d="M 90 250 L 155 235 L 220 220 L 285 205 L 340 190" fill="none" stroke="#60a5fa" stroke-width="2" opacity="0.7"/>
  <path d="M 90 230 L 155 217 L 220 204 L 285 191 L 340 178" fill="none" stroke="#60a5fa" stroke-width="2" opacity="0.7"/>
  <path d="M 90 210 L 155 196 L 220 182 L 285 168 L 340 154" fill="none" stroke="#60a5fa" stroke-width="2" opacity="0.7"/>
  <path d="M 90 190 L 155 177 L 220 164 L 285 151 L 340 138" fill="none" stroke="#60a5fa" stroke-width="2" opacity="0.7"/>
  <path d="M 90 170 L 155 155 L 220 140 L 285 125 L 340 135" fill="none" stroke="#60a5fa" stroke-width="2" opacity="0.7"/>
  <path d="M 90 260 L 155 248 L 220 236 L 285 224 L 340 212" fill="none" stroke="#60a5fa" stroke-width="2" opacity="0.7"/>
  <path d="M 90 180 L 155 166 L 220 152 L 285 138 L 340 124" fill="none" stroke="#60a5fa" stroke-width="2" opacity="0.7"/>
  
  <!-- Mean trajectory (thicker, darker) -->
  <path d="M 90 215 L 155 200 L 220 185 L 285 170 L 340 155" fill="none" stroke="#1d4ed8" stroke-width="3"/>
  
  <!-- Annotation -->
  <text x="210" y="340" text-anchor="middle" font-family="Arial, sans-serif" font-size="11" fill="#1d4ed8">Lines stay roughly parallel</text>
  
  
  <!-- Right Panel: High Slope Variance -->
  <rect x="410" y="50" width="360" height="300" fill="white" stroke="#e5e7eb" stroke-width="1" rx="8"/>
  <text x="590" y="80" text-anchor="middle" font-family="Arial, sans-serif" font-size="14" font-weight="bold" fill="#374151">High Slope Variance</text>
  <text x="590" y="98" text-anchor="middle" font-family="Arial, sans-serif" font-size="12" fill="#6b7280">(People change at very different rates)</text>
  
  <!-- Right axes -->
  <line x1="450" y1="290" x2="730" y2="290" stroke="#374151" stroke-width="1.5"/>
  <line x1="450" y1="290" x2="450" y2="120" stroke="#374151" stroke-width="1.5"/>
  <text x="590" y="320" text-anchor="middle" font-family="Arial, sans-serif" font-size="12" fill="#374151">Time</text>
  <text x="430" y="205" text-anchor="middle" font-family="Arial, sans-serif" font-size="12" fill="#374151" transform="rotate(-90, 430, 205)">Score</text>
  
  <!-- Time labels -->
  <text x="470" y="305" text-anchor="middle" font-family="Arial, sans-serif" font-size="10" fill="#6b7280">1</text>
  <text x="535" y="305" text-anchor="middle" font-family="Arial, sans-serif" font-size="10" fill="#6b7280">2</text>
  <text x="600" y="305" text-anchor="middle" font-family="Arial, sans-serif" font-size="10" fill="#6b7280">3</text>
  <text x="665" y="305" text-anchor="middle" font-family="Arial, sans-serif" font-size="10" fill="#6b7280">4</text>
  <text x="720" y="305" text-anchor="middle" font-family="Arial, sans-serif" font-size="10" fill="#6b7280">5</text>
  
  <!-- Right panel: Diverse slopes (high variance) - fan pattern -->
  <path d="M 470 250 L 535 215 L 600 180 L 665 145 L 720 125" fill="none" stroke="#f97316" stroke-width="2" opacity="0.7"/>
  <path d="M 470 230 L 535 218 L 600 206 L 665 194 L 720 182" fill="none" stroke="#f97316" stroke-width="2" opacity="0.7"/>
  <path d="M 470 200 L 535 197 L 600 194 L 665 191 L 720 188" fill="none" stroke="#f97316" stroke-width="2" opacity="0.7"/>
  <path d="M 470 210 L 535 212 L 600 214 L 665 216 L 720 218" fill="none" stroke="#f97316" stroke-width="2" opacity="0.7"/>
  <path d="M 470 180 L 535 195 L 600 210 L 665 225 L 720 240" fill="none" stroke="#f97316" stroke-width="2" opacity="0.7"/>
  <path d="M 470 270 L 535 230 L 600 190 L 665 150 L 720 125" fill="none" stroke="#f97316" stroke-width="2" opacity="0.7"/>
  <path d="M 470 240 L 535 222 L 600 204 L 665 186 L 720 168" fill="none" stroke="#f97316" stroke-width="2" opacity="0.7"/>
  
  <!-- Mean trajectory (thicker, darker) -->
  <path d="M 470 225 L 535 210 L 600 195 L 665 180 L 720 175" fill="none" stroke="#c2410c" stroke-width="3"/>
  
  <!-- Annotation -->
  <text x="590" y="340" text-anchor="middle" font-family="Arial, sans-serif" font-size="11" fill="#c2410c">Lines "fan out" — some steep, some flat, some decline</text>
  
</svg>