<svg id="svg" version="1.1" xmlns="http://www.w3.org/2000/svg" xmlns:xlink="http://www.w3.org/1999/xlink" width="400" height="400" viewBox="0, 0, 400,400"><g id="svgg"><path id="path0" d="M287.793 151.064 C 288.491 151.150,289.634 151.150,290.332 151.064 C 291.030 150.977,290.459 150.906,289.063 150.906 C 287.666 150.906,287.095 150.977,287.793 151.064 M293.862 151.070 C 295.105 151.148,297.039 151.147,298.159 151.069 C 299.279 150.990,298.262 150.926,295.898 150.927 C 293.535 150.928,292.619 150.993,293.862 151.070 M305.715 151.944 C 305.902 152.120,306.846 152.367,307.813 152.494 C 309.865 152.763,309.518 152.527,307.082 151.996 C 306.143 151.792,305.527 151.768,305.715 151.944 M314.648 154.297 C 315.078 154.482,315.693 154.633,316.016 154.633 C 316.385 154.633,316.313 154.508,315.820 154.297 C 315.391 154.112,314.775 153.961,314.453 153.961 C 314.084 153.961,314.156 154.085,314.648 154.297 M324.219 157.813 C 324.971 158.224,325.762 158.561,325.977 158.561 C 326.191 158.561,325.752 158.224,325.000 157.813 C 324.248 157.401,323.457 157.064,323.242 157.064 C 323.027 157.064,323.467 157.401,324.219 157.813 M328.906 159.945 C 328.906 160.052,329.609 160.499,330.469 160.938 C 331.328 161.376,332.031 161.647,332.031 161.539 C 332.031 161.432,331.328 160.985,330.469 160.547 C 329.609 160.108,328.906 159.838,328.906 159.945 M332.422 161.855 C 332.422 161.945,333.433 162.621,334.668 163.357 C 335.903 164.093,337.397 165.013,337.988 165.401 C 338.579 165.788,339.063 166.013,339.063 165.900 C 339.063 165.787,337.964 165.004,336.621 164.159 C 333.778 162.369,332.422 161.625,332.422 161.855 M343.359 168.866 C 343.359 168.980,344.282 169.747,345.410 170.570 C 346.538 171.392,349.131 173.457,351.172 175.158 C 353.213 176.859,354.531 177.852,354.102 177.365 C 352.802 175.892,343.359 168.421,343.359 168.866 M297.956 171.377 C 298.658 171.464,299.713 171.462,300.300 171.373 C 300.887 171.284,300.313 171.213,299.023 171.215 C 297.734 171.217,297.254 171.290,297.956 171.377 M308.105 171.376 C 308.804 171.463,309.946 171.463,310.645 171.376 C 311.343 171.290,310.771 171.219,309.375 171.219 C 307.979 171.219,307.407 171.290,308.105 171.376 M312.798 171.761 C 313.283 171.854,313.987 171.851,314.360 171.753 C 314.733 171.655,314.336 171.579,313.477 171.583 C 312.617 171.587,312.312 171.667,312.798 171.761 M233.008 174.058 L 231.836 175.065 233.105 174.224 C 233.804 173.762,234.375 173.308,234.375 173.216 C 234.375 172.923,234.210 173.025,233.008 174.058 M283.008 173.828 C 282.515 174.040,282.443 174.164,282.813 174.164 C 283.135 174.164,283.750 174.013,284.180 173.828 C 284.672 173.617,284.744 173.492,284.375 173.492 C 284.053 173.492,283.438 173.643,283.008 173.828 M329.883 175.391 C 330.313 175.575,330.928 175.726,331.250 175.726 C 331.619 175.726,331.547 175.602,331.055 175.391 C 330.625 175.206,330.010 175.055,329.688 175.055 C 329.318 175.055,329.390 175.179,329.883 175.391 M333.594 176.497 C 333.916 176.696,334.619 176.976,335.156 177.120 C 335.835 177.301,335.954 177.271,335.547 177.019 C 335.225 176.820,334.521 176.539,333.984 176.396 C 333.306 176.214,333.187 176.245,333.594 176.497 M336.719 177.668 C 337.041 177.868,337.744 178.148,338.281 178.292 C 338.960 178.473,339.079 178.443,338.672 178.191 C 338.350 177.992,337.646 177.711,337.109 177.568 C 336.431 177.386,336.312 177.417,336.719 177.668 M269.141 179.102 C 268.604 179.409,268.340 179.660,268.555 179.660 C 268.770 179.660,269.385 179.409,269.922 179.102 C 270.459 178.795,270.723 178.543,270.508 178.543 C 270.293 178.543,269.678 178.795,269.141 179.102 M223.438 181.303 L 221.680 182.895 223.334 181.653 C 224.774 180.573,225.697 179.662,225.316 179.699 C 225.250 179.706,224.404 180.427,223.438 181.303 M342.220 179.838 C 342.617 180.204,349.609 183.581,349.609 183.406 C 349.609 183.189,342.751 179.688,342.326 179.688 C 342.178 179.688,342.131 179.755,342.220 179.838 M357.422 180.591 C 357.422 180.658,357.993 181.229,358.691 181.861 L 359.961 183.008 358.814 181.738 C 357.744 180.555,357.422 180.289,357.422 180.591 M350.000 183.769 C 350.000 183.876,350.527 184.237,351.172 184.570 C 351.816 184.904,352.344 185.088,352.344 184.981 C 352.344 184.874,351.816 184.513,351.172 184.180 C 350.527 183.846,350.000 183.662,350.000 183.769 M252.539 188.901 L 251.367 189.908 252.637 189.068 C 253.335 188.606,253.906 188.152,253.906 188.059 C 253.906 187.767,253.741 187.869,252.539 188.901 M209.375 192.040 C 206.870 194.000,206.508 194.495,208.709 192.952 C 210.351 191.801,211.704 190.586,211.278 190.645 C 211.198 190.656,210.342 191.284,209.375 192.040 M248.242 191.828 C 245.925 193.580,245.613 194.074,247.786 192.551 C 249.428 191.400,250.321 190.600,249.925 190.636 C 249.859 190.642,249.102 191.178,248.242 191.828 M40.137 193.391 C 39.029 194.036,39.391 196.527,40.784 197.850 C 43.362 200.296,62.845 212.761,67.578 214.992 C 69.569 215.930,68.410 215.187,62.695 211.864 C 49.811 204.370,39.844 197.126,39.844 195.256 C 39.844 192.912,41.411 192.827,45.953 194.925 C 47.817 195.786,49.405 196.428,49.482 196.351 C 49.749 196.084,42.540 192.969,41.683 192.981 C 41.208 192.987,40.513 193.172,40.137 193.391 M204.102 195.933 L 202.930 196.940 204.199 196.099 C 204.897 195.637,205.469 195.183,205.469 195.091 C 205.469 194.798,205.303 194.900,204.102 195.933 M51.172 197.266 C 51.924 197.677,52.715 198.014,52.930 198.014 C 53.145 198.014,52.705 197.677,51.953 197.266 C 51.201 196.854,50.410 196.517,50.195 196.517 C 49.980 196.517,50.420 196.854,51.172 197.266 M54.688 198.759 C 56.410 199.713,67.194 204.030,67.383 203.841 C 67.460 203.764,64.591 202.506,61.008 201.045 C 53.372 197.934,52.873 197.753,54.688 198.759 M235.938 201.215 C 234.326 202.512,232.744 203.852,232.422 204.193 C 231.755 204.900,235.823 201.803,237.891 200.032 C 240.294 197.972,238.971 198.773,235.938 201.215 M197.754 200.045 C 196.422 200.898,195.992 201.470,197.168 200.824 C 198.064 200.331,199.468 199.245,199.219 199.238 C 199.111 199.235,198.452 199.598,197.754 200.045 M194.629 201.998 C 193.297 202.851,192.867 203.423,194.043 202.777 C 194.939 202.284,196.343 201.198,196.094 201.191 C 195.986 201.188,195.327 201.551,194.629 201.998 M190.918 204.130 C 189.458 204.922,189.547 205.252,191.016 204.492 C 191.660 204.159,192.188 203.803,192.188 203.701 C 192.188 203.450,192.146 203.464,190.918 204.130 M68.945 204.448 C 69.590 204.741,70.557 205.089,71.094 205.221 C 71.878 205.414,71.840 205.356,70.898 204.927 C 70.254 204.634,69.287 204.286,68.750 204.154 C 67.966 203.961,68.004 204.019,68.945 204.448 M184.766 207.422 C 182.295 208.689,180.408 209.734,180.573 209.745 C 180.988 209.773,189.453 205.507,189.453 205.270 C 189.453 205.004,189.729 204.877,184.766 207.422 M291.797 205.351 C 271.492 207.548,256.778 215.026,222.883 240.376 C 194.983 261.243,173.944 270.918,149.805 273.985 C 138.498 275.422,127.668 274.997,110.547 272.446 C 95.483 270.201,77.611 264.421,60.931 256.400 C 52.736 252.459,52.205 252.312,50.639 253.544 C 48.047 255.582,50.228 257.956,64.844 269.001 C 98.914 294.751,132.849 304.093,168.164 297.446 C 191.812 292.995,208.223 284.503,237.883 261.369 C 266.887 238.747,279.215 231.482,295.508 227.410 C 301.312 225.960,314.608 225.118,318.453 225.957 C 318.938 226.063,320.303 226.244,321.484 226.359 C 330.698 227.255,339.231 230.084,351.833 236.420 C 370.536 245.822,362.034 231.691,340.430 217.465 C 326.416 208.237,307.855 203.614,291.797 205.351 M72.266 205.590 C 72.266 205.875,80.868 208.715,81.083 208.501 C 81.179 208.405,79.454 207.748,77.250 207.041 C 75.045 206.334,73.022 205.672,72.754 205.571 C 72.485 205.469,72.266 205.477,72.266 205.590 M226.758 208.441 L 225.195 209.840 226.855 208.598 C 228.284 207.529,228.800 207.014,228.418 207.037 C 228.364 207.040,227.617 207.672,226.758 208.441 M85.547 209.997 C 87.158 210.512,88.652 210.917,88.867 210.897 C 89.082 210.876,87.939 210.439,86.328 209.924 C 84.717 209.410,83.223 209.005,83.008 209.025 C 82.793 209.045,83.936 209.483,85.547 209.997 M92.391 211.876 C 93.255 212.164,94.574 212.504,95.321 212.632 C 96.616 212.854,96.606 212.841,95.109 212.342 C 94.245 212.055,92.926 211.715,92.179 211.587 C 90.884 211.365,90.894 211.378,92.391 211.876 M173.901 211.986 C 172.975 212.313,172.286 212.650,172.370 212.735 C 172.549 212.913,176.172 211.723,176.172 211.487 C 176.172 211.242,175.727 211.340,173.901 211.986 M220.508 213.120 L 219.336 214.127 220.605 213.287 C 221.304 212.825,221.875 212.371,221.875 212.278 C 221.875 211.986,221.710 212.088,220.508 213.120 M101.172 214.075 C 102.783 214.480,104.453 214.805,104.883 214.799 C 105.313 214.792,104.346 214.455,102.734 214.050 C 101.123 213.645,99.453 213.320,99.023 213.326 C 98.594 213.333,99.561 213.670,101.172 214.075 M168.945 213.672 C 168.453 213.883,168.381 214.008,168.750 214.008 C 169.072 214.008,169.688 213.857,170.117 213.672 C 170.610 213.460,170.682 213.336,170.313 213.336 C 169.990 213.336,169.375 213.487,168.945 213.672 M108.984 215.606 C 110.893 216.098,118.461 217.197,119.581 217.144 C 120.454 217.104,113.843 216.013,109.570 215.492 C 107.948 215.295,107.849 215.314,108.984 215.606 M216.211 216.245 L 215.039 217.252 216.309 216.412 C 217.007 215.950,217.578 215.496,217.578 215.403 C 217.578 215.111,217.413 215.213,216.211 216.245 M69.141 215.878 C 69.141 216.136,86.737 224.722,86.910 224.549 C 86.985 224.474,83.017 222.449,78.093 220.049 C 73.169 217.650,69.141 215.773,69.141 215.878 M150.781 217.188 L 149.023 217.461 150.661 217.519 C 151.561 217.552,152.406 217.402,152.539 217.188 C 152.672 216.973,152.726 216.823,152.660 216.856 C 152.593 216.888,151.748 217.037,150.781 217.188 M121.587 217.468 C 122.181 217.558,123.060 217.555,123.541 217.462 C 124.021 217.370,123.535 217.296,122.461 217.299 C 121.387 217.302,120.994 217.378,121.587 217.468 M211.613 219.302 C 208.757 221.248,207.285 222.403,208.594 221.673 C 209.904 220.942,214.844 217.542,214.844 217.371 C 214.844 217.098,214.883 217.075,211.613 219.302 M125.879 217.863 C 126.685 217.947,128.003 217.947,128.809 217.863 C 129.614 217.778,128.955 217.709,127.344 217.709 C 125.732 217.709,125.073 217.778,125.879 217.863 M130.992 218.060 C 131.241 218.218,134.434 218.318,138.086 218.283 C 145.278 218.213,144.361 218.045,135.875 217.878 C 132.940 217.821,130.743 217.903,130.992 218.060 M145.801 217.858 C 146.392 217.947,147.358 217.947,147.949 217.858 C 148.540 217.768,148.057 217.695,146.875 217.695 C 145.693 217.695,145.210 217.768,145.801 217.858 M88.046 225.029 C 89.086 225.682,93.463 227.370,93.645 227.189 C 93.727 227.106,92.512 226.536,90.945 225.922 C 87.416 224.539,87.118 224.447,88.046 225.029 M200.293 226.001 C 198.843 226.746,197.656 227.442,197.656 227.549 C 197.656 227.657,198.887 227.125,200.391 226.367 C 201.895 225.610,203.125 224.904,203.125 224.800 C 203.125 224.538,203.234 224.491,200.293 226.001 M94.531 227.668 C 94.854 227.868,95.557 228.148,96.094 228.292 C 96.772 228.473,96.892 228.443,96.484 228.191 C 96.162 227.992,95.459 227.711,94.922 227.568 C 94.243 227.386,94.124 227.417,94.531 227.668 M195.313 228.516 C 194.561 228.927,194.121 229.264,194.336 229.264 C 194.551 229.264,195.342 228.927,196.094 228.516 C 196.846 228.104,197.285 227.767,197.070 227.767 C 196.855 227.767,196.064 228.104,195.313 228.516 M98.242 229.057 C 98.887 229.351,99.854 229.699,100.391 229.830 C 101.175 230.023,101.136 229.965,100.195 229.536 C 99.551 229.243,98.584 228.895,98.047 228.763 C 97.263 228.571,97.301 228.629,98.242 229.057 M189.648 230.887 C 188.789 231.301,188.525 231.529,189.063 231.396 C 190.169 231.120,192.199 230.102,191.602 230.123 C 191.387 230.130,190.508 230.474,189.648 230.887 M105.664 231.641 C 106.738 232.037,107.881 232.361,108.203 232.361 C 108.525 232.361,107.910 232.037,106.836 231.641 C 105.762 231.244,104.619 230.920,104.297 230.920 C 103.975 230.920,104.590 231.244,105.664 231.641 M109.570 232.813 C 110.000 232.997,110.615 233.148,110.938 233.148 C 111.307 233.148,111.235 233.024,110.742 232.813 C 110.312 232.628,109.697 232.477,109.375 232.477 C 109.006 232.477,109.078 232.601,109.570 232.813 M112.305 233.594 C 112.734 233.778,113.350 233.929,113.672 233.929 C 114.041 233.929,113.969 233.805,113.477 233.594 C 113.047 233.409,112.432 233.258,112.109 233.258 C 111.740 233.258,111.812 233.382,112.305 233.594 M116.016 234.591 C 116.982 234.895,118.125 235.135,118.555 235.124 C 118.984 235.113,118.457 234.859,117.383 234.561 C 114.829 233.852,113.746 233.875,116.016 234.591 M171.094 236.133 C 168.838 236.624,167.280 237.045,167.633 237.068 C 168.417 237.119,175.849 235.610,176.112 235.346 C 176.424 235.034,175.406 235.194,171.094 236.133 M124.805 236.532 C 125.879 236.808,127.285 237.034,127.930 237.034 C 128.574 237.033,127.959 236.797,126.563 236.509 C 123.366 235.850,122.210 235.865,124.805 236.532 M129.785 237.379 C 130.161 237.477,130.776 237.477,131.152 237.379 C 131.528 237.280,131.221 237.200,130.469 237.200 C 129.717 237.200,129.409 237.280,129.785 237.379 M163.086 237.500 C 161.757 237.738,161.699 237.785,162.695 237.813 C 163.340 237.831,164.570 237.700,165.430 237.522 C 167.474 237.100,165.432 237.080,163.086 237.500 M132.064 237.643 C 132.153 237.722,133.085 237.879,134.135 237.992 C 135.301 238.117,135.833 238.064,135.502 237.855 C 134.995 237.534,131.710 237.332,132.064 237.643 M136.361 238.031 C 136.450 238.109,137.490 238.270,138.672 238.391 C 140.009 238.527,140.525 238.484,140.039 238.277 C 139.290 237.959,136.024 237.741,136.361 238.031 M157.525 238.171 C 158.119 238.261,158.998 238.258,159.478 238.166 C 159.958 238.073,159.473 237.999,158.398 238.002 C 157.324 238.005,156.931 238.081,157.525 238.171 M145.040 238.573 C 147.146 238.643,150.486 238.643,152.462 238.572 C 154.438 238.501,152.715 238.444,148.633 238.444 C 144.551 238.444,142.934 238.502,145.040 238.573 " stroke="none" fill="#37a263" fill-rule="evenodd"></path><path id="path1" d="M186.133 0.242 C 147.205 4.028,117.964 14.075,88.477 33.798 C 18.777 80.416,-14.493 166.452,5.669 247.933 C 30.914 349.958,129.980 414.742,233.984 397.242 C 342.469 378.987,415.640 275.353,397.242 166.016 C 382.487 78.331,311.645 11.726,221.680 0.955 C 216.508 0.336,190.526 -0.186,186.133 0.242 M292.188 102.361 C 307.185 104.884,320.649 111.028,337.150 122.881 C 343.266 127.274,345.041 129.499,343.710 131.103 C 342.362 132.727,340.566 132.485,335.135 129.946 C 313.872 120.007,291.279 117.382,272.852 122.709 C 257.908 127.030,247.011 133.326,227.344 149.003 C 202.341 168.933,185.694 177.664,167.758 180.254 C 166.890 180.379,165.747 180.566,165.219 180.668 C 162.315 181.229,153.136 181.708,149.414 181.492 C 144.534 181.209,137.775 180.588,136.344 180.291 C 135.815 180.181,134.673 179.991,133.805 179.868 C 129.158 179.211,119.057 176.292,112.295 173.652 C 96.076 167.318,65.234 147.114,65.234 142.822 C 65.234 140.440,67.673 140.436,72.852 142.810 C 87.119 149.348,90.434 150.725,98.805 153.588 C 133.301 165.389,162.663 163.564,188.281 148.028 C 192.958 145.192,202.166 138.644,209.961 132.611 C 245.669 104.974,265.139 97.812,292.188 102.361 M304.688 151.336 C 322.802 154.557,338.803 163.173,356.445 179.208 C 361.199 183.529,362.244 185.629,360.720 187.804 C 359.720 189.232,358.316 188.875,353.103 185.871 C 328.108 171.465,302.481 167.888,279.422 175.586 C 267.255 179.647,251.763 188.902,237.598 200.570 C 232.777 204.542,220.207 214.027,214.430 218.053 C 168.199 250.269,110.577 245.174,48.242 203.356 C 38.829 197.042,36.942 194.494,40.566 192.993 C 41.862 192.456,41.546 192.349,50.744 196.451 C 102.934 219.726,148.923 223.903,182.274 208.397 C 193.719 203.076,205.345 195.358,222.852 181.456 C 254.502 156.325,279.989 146.944,304.688 151.336 M313.867 206.425 C 327.972 209.431,338.469 214.716,350.671 224.954 C 362.110 234.551,365.323 239.844,359.711 239.844 C 358.589 239.844,356.331 238.884,350.689 236.010 C 340.385 230.760,334.708 228.777,324.609 226.902 C 319.994 226.045,305.594 225.616,302.344 226.239 C 301.592 226.383,300.186 226.622,299.219 226.771 C 288.023 228.493,265.938 239.226,255.286 248.121 C 255.064 248.306,252.861 249.991,250.391 251.866 C 246.567 254.767,243.699 256.981,241.015 259.106 C 213.479 280.907,194.345 291.776,176.221 295.912 C 143.731 303.325,115.536 299.350,86.120 283.209 C 75.172 277.202,52.811 260.902,50.304 257.100 C 47.380 252.666,51.549 251.600,58.356 255.040 C 79.035 265.492,99.651 271.539,122.415 273.828 C 157.832 277.390,187.133 267.595,222.852 240.254 C 250.005 219.469,265.996 210.530,283.008 206.628 C 291.017 204.791,305.747 204.694,313.867 206.425 " stroke="none" fill="#fbfbfb" fill-rule="evenodd"></path><path id="path2" d="M272.937 102.092 C 273.051 102.275,272.259 102.363,271.179 102.287 C 270.098 102.211,269.281 102.257,269.363 102.389 C 269.577 102.734,265.265 103.190,264.757 102.876 C 264.488 102.710,264.446 102.798,264.644 103.117 C 264.879 103.498,264.662 103.578,263.748 103.443 C 263.031 103.338,262.636 103.419,262.774 103.643 C 262.911 103.865,262.586 103.939,261.984 103.824 C 261.358 103.704,261.055 103.780,261.203 104.019 C 261.350 104.258,261.047 104.334,260.421 104.215 C 259.795 104.095,259.492 104.171,259.640 104.410 C 259.793 104.658,259.490 104.703,258.815 104.534 C 258.036 104.338,257.825 104.392,258.036 104.733 C 258.239 105.062,258.074 105.136,257.482 104.981 C 256.948 104.841,256.732 104.911,256.893 105.171 C 257.056 105.435,256.781 105.512,256.125 105.387 C 255.491 105.265,255.195 105.342,255.346 105.587 C 255.496 105.829,255.265 105.897,254.748 105.762 C 254.284 105.641,254.004 105.701,254.124 105.896 C 254.325 106.220,253.669 106.400,252.446 106.356 C 252.179 106.346,252.075 106.522,252.214 106.746 C 252.373 107.004,252.154 107.073,251.623 106.934 C 251.083 106.793,250.872 106.863,251.037 107.129 C 251.202 107.396,250.991 107.466,250.451 107.325 C 249.906 107.182,249.700 107.253,249.868 107.525 C 250.034 107.793,249.886 107.852,249.458 107.688 C 249.060 107.535,248.884 107.588,249.026 107.817 C 249.244 108.169,248.621 108.354,247.367 108.309 C 247.101 108.299,246.998 108.477,247.139 108.704 C 247.299 108.964,247.145 109.022,246.723 108.860 C 246.272 108.687,246.144 108.750,246.333 109.055 C 246.526 109.368,246.385 109.421,245.877 109.225 C 245.472 109.070,245.271 109.073,245.430 109.232 C 245.812 109.614,240.636 112.162,240.122 111.845 C 239.875 111.692,239.845 111.795,240.043 112.115 C 240.282 112.503,240.178 112.562,239.627 112.350 C 239.222 112.195,239.016 112.193,239.170 112.347 C 239.576 112.754,237.970 113.767,237.439 113.439 C 237.140 113.254,237.096 113.334,237.308 113.678 C 237.548 114.066,237.444 114.125,236.892 113.913 C 236.488 113.758,236.282 113.756,236.435 113.909 C 236.842 114.316,235.236 115.330,234.705 115.001 C 234.426 114.829,234.360 114.895,234.533 115.174 C 234.796 115.600,234.271 115.815,233.398 115.639 C 233.184 115.595,233.139 115.691,233.298 115.850 C 233.713 116.265,232.120 117.289,231.580 116.954 C 231.301 116.782,231.235 116.848,231.408 117.127 C 231.661 117.537,231.174 117.759,230.342 117.615 C 230.165 117.584,230.131 117.739,230.267 117.959 C 230.494 118.325,229.968 118.535,229.170 118.396 C 228.993 118.365,228.960 118.520,229.096 118.740 C 229.322 119.106,228.796 119.316,227.998 119.177 C 227.821 119.146,227.782 119.293,227.912 119.502 C 228.201 119.970,226.785 120.784,226.356 120.396 C 226.186 120.243,226.173 120.337,226.328 120.605 C 226.584 121.052,226.122 121.279,225.264 121.130 C 225.087 121.100,225.048 121.246,225.177 121.455 C 225.467 121.923,224.051 122.737,223.622 122.350 C 223.451 122.196,223.433 122.281,223.581 122.539 C 223.889 123.075,222.534 123.950,222.059 123.521 C 221.889 123.368,221.876 123.462,222.031 123.730 C 222.185 123.999,222.126 124.241,221.898 124.268 C 221.671 124.294,221.323 124.338,221.126 124.365 C 220.929 124.392,220.622 124.574,220.443 124.770 C 220.250 124.980,220.356 124.997,220.703 124.810 C 221.465 124.400,220.867 124.987,219.388 126.100 C 218.772 126.563,218.085 126.830,217.862 126.692 C 217.634 126.551,217.574 126.630,217.724 126.873 C 218.035 127.377,216.657 128.231,216.200 127.818 C 216.030 127.665,216.011 127.750,216.159 128.008 C 216.419 128.460,214.978 129.556,214.355 129.380 C 214.194 129.334,214.106 129.517,214.160 129.785 C 214.214 130.054,213.906 130.274,213.477 130.274 C 213.047 130.274,212.695 130.500,212.695 130.776 C 212.695 131.350,211.703 132.068,211.276 131.804 C 211.120 131.707,210.864 131.834,210.709 132.085 C 210.521 132.389,210.610 132.446,210.975 132.253 C 211.277 132.094,211.089 132.317,210.558 132.748 C 210.027 133.180,209.428 133.431,209.228 133.308 C 209.028 133.184,208.984 133.277,209.130 133.514 C 209.379 133.915,208.330 134.762,207.747 134.629 C 207.604 134.597,207.340 134.730,207.161 134.926 C 206.970 135.135,207.077 135.161,207.422 134.990 C 207.744 134.829,207.573 135.051,207.042 135.482 C 206.511 135.914,205.913 136.166,205.712 136.042 C 205.512 135.918,205.468 136.011,205.615 136.248 C 205.926 136.752,204.548 137.606,204.090 137.193 C 203.920 137.040,203.902 137.125,204.050 137.383 C 204.353 137.911,202.996 138.804,202.558 138.365 C 202.404 138.212,202.337 138.350,202.409 138.672 C 202.489 139.031,202.276 139.237,201.860 139.204 C 201.486 139.175,201.271 139.298,201.382 139.478 C 201.649 139.909,200.193 140.679,199.793 140.318 C 199.623 140.165,199.605 140.250,199.753 140.508 C 200.061 141.044,198.706 141.919,198.231 141.490 C 198.061 141.337,198.048 141.431,198.203 141.699 C 198.459 142.145,197.997 142.373,197.139 142.224 C 196.962 142.193,196.928 142.348,197.064 142.568 C 197.291 142.935,196.765 143.144,195.967 143.005 C 195.790 142.975,195.751 143.121,195.880 143.330 C 196.090 143.669,194.859 144.630,194.485 144.420 C 194.403 144.374,194.381 144.410,194.436 144.501 C 194.635 144.830,191.253 146.826,190.884 146.598 C 190.675 146.469,190.622 146.554,190.766 146.787 C 191.030 147.214,189.594 147.906,188.867 147.701 C 188.652 147.641,188.607 147.722,188.767 147.882 C 189.182 148.297,187.589 149.320,187.048 148.986 C 186.788 148.825,186.704 148.878,186.849 149.113 C 187.096 149.512,184.876 150.674,184.248 150.474 C 184.071 150.417,184.056 150.581,184.215 150.838 C 184.413 151.159,184.294 151.224,183.833 151.047 C 183.381 150.874,183.254 150.938,183.442 151.243 C 183.631 151.548,183.503 151.611,183.052 151.438 C 182.600 151.265,182.472 151.328,182.661 151.633 C 182.849 151.938,182.722 152.002,182.270 151.829 C 181.819 151.655,181.691 151.719,181.880 152.024 C 182.068 152.329,181.941 152.393,181.489 152.219 C 181.037 152.046,180.910 152.110,181.098 152.415 C 181.292 152.727,181.151 152.780,180.642 152.585 C 180.238 152.430,180.042 152.437,180.207 152.603 C 180.599 152.995,176.602 154.758,176.069 154.429 C 175.812 154.270,175.779 154.369,175.980 154.694 C 176.214 155.072,176.121 155.142,175.630 154.954 C 175.232 154.801,175.056 154.853,175.198 155.083 C 175.416 155.435,174.793 155.620,173.539 155.574 C 173.273 155.565,173.169 155.741,173.307 155.965 C 173.466 156.222,173.248 156.292,172.717 156.153 C 172.171 156.010,171.966 156.081,172.134 156.353 C 172.300 156.621,172.152 156.680,171.723 156.516 C 171.355 156.375,171.147 156.411,171.262 156.598 C 171.521 157.015,169.217 157.515,168.650 157.164 C 168.392 157.005,168.357 157.101,168.555 157.423 C 168.791 157.805,168.657 157.879,168.029 157.715 C 167.489 157.574,167.279 157.644,167.443 157.910 C 167.608 158.177,167.398 158.247,166.857 158.106 C 166.322 157.966,166.107 158.036,166.269 158.297 C 166.437 158.569,166.161 158.617,165.455 158.440 C 164.682 158.246,164.466 158.299,164.674 158.635 C 164.881 158.971,164.666 159.025,163.893 158.830 C 163.225 158.663,162.915 158.707,163.064 158.949 C 163.360 159.427,160.777 159.954,160.121 159.549 C 159.799 159.350,159.746 159.418,159.956 159.758 C 160.192 160.139,159.974 160.218,159.060 160.084 C 158.344 159.979,157.948 160.060,158.086 160.284 C 158.224 160.505,157.899 160.580,157.296 160.465 C 156.734 160.357,156.352 160.396,156.447 160.550 C 156.688 160.939,151.837 161.399,150.074 161.155 C 149.011 161.007,148.889 161.036,149.609 161.264 C 150.281 161.477,149.185 161.657,146.094 161.840 C 140.249 162.186,137.801 162.179,138.027 161.816 C 138.127 161.655,136.800 161.581,135.078 161.652 C 133.356 161.723,132.037 161.635,132.148 161.457 C 132.259 161.279,131.267 161.174,129.944 161.224 C 128.214 161.289,127.758 161.213,128.320 160.951 C 128.863 160.698,128.386 160.642,126.758 160.769 C 125.096 160.898,124.641 160.842,125.195 160.578 C 125.765 160.307,125.447 160.254,124.023 160.383 C 122.576 160.515,122.273 160.463,122.852 160.181 C 123.431 159.898,123.179 159.854,121.875 160.010 C 120.579 160.164,120.271 160.111,120.703 159.808 C 121.138 159.503,120.885 159.453,119.727 159.614 C 118.546 159.777,118.307 159.727,118.750 159.408 C 119.194 159.088,119.014 159.047,118.006 159.241 C 117.057 159.424,116.754 159.369,116.951 159.051 C 117.146 158.735,116.862 158.678,115.974 158.856 C 115.172 159.016,114.810 158.965,114.967 158.711 C 115.118 158.467,114.821 158.391,114.188 158.512 C 113.562 158.631,113.259 158.555,113.407 158.316 C 113.554 158.077,113.251 158.001,112.625 158.121 C 112.000 158.241,111.696 158.165,111.844 157.926 C 111.992 157.686,111.689 157.611,111.063 157.730 C 110.500 157.838,110.137 157.768,110.255 157.576 C 110.373 157.384,109.837 157.212,109.065 157.194 C 108.293 157.176,107.598 156.975,107.523 156.747 C 107.447 156.519,107.014 156.430,106.561 156.548 C 105.946 156.709,105.818 156.632,106.058 156.245 C 106.294 155.863,106.198 155.796,105.697 155.988 C 104.873 156.304,103.053 155.902,103.324 155.464 C 103.430 155.292,103.137 155.250,102.674 155.371 C 102.134 155.513,101.923 155.442,102.088 155.176 C 102.253 154.910,102.042 154.840,101.502 154.981 C 100.874 155.145,100.740 155.070,100.976 154.689 C 101.181 154.357,101.140 154.270,100.860 154.444 C 100.246 154.823,98.393 154.294,98.684 153.823 C 98.836 153.578,98.598 153.536,98.047 153.711 C 97.489 153.888,97.257 153.845,97.413 153.594 C 97.563 153.351,97.331 153.283,96.814 153.418 C 96.274 153.560,96.064 153.489,96.229 153.223 C 96.393 152.957,96.183 152.886,95.643 153.028 C 95.111 153.167,94.893 153.097,95.052 152.840 C 95.191 152.616,95.086 152.440,94.820 152.449 C 93.596 152.493,92.941 152.314,93.142 151.990 C 93.262 151.795,92.981 151.735,92.518 151.856 C 91.944 152.006,91.763 151.933,91.951 151.629 C 92.131 151.338,92.015 151.263,91.622 151.413 C 91.288 151.541,91.016 151.457,91.016 151.226 C 91.016 150.995,90.724 150.918,90.366 151.055 C 89.961 151.211,89.812 151.149,89.971 150.892 C 90.111 150.665,90.008 150.487,89.742 150.496 C 88.488 150.541,87.865 150.357,88.083 150.004 C 88.215 149.791,88.074 149.713,87.766 149.832 C 87.460 149.949,86.966 149.801,86.668 149.503 C 86.370 149.205,85.883 149.042,85.587 149.140 C 85.263 149.248,85.155 149.146,85.317 148.883 C 85.484 148.614,85.375 148.528,85.032 148.660 C 84.726 148.777,84.233 148.643,83.937 148.362 C 83.641 148.081,83.179 147.834,82.910 147.813 C 81.776 147.722,81.607 147.636,81.833 147.270 C 81.965 147.056,81.824 146.979,81.516 147.097 C 81.210 147.215,80.695 147.045,80.370 146.721 C 80.046 146.396,79.672 146.240,79.539 146.373 C 79.406 146.506,79.297 146.399,79.297 146.136 C 79.297 145.872,79.137 145.756,78.942 145.877 C 78.440 146.187,77.304 145.693,77.562 145.276 C 77.679 145.086,77.473 145.047,77.105 145.188 C 76.653 145.361,76.526 145.298,76.714 144.993 C 76.903 144.688,76.775 144.624,76.323 144.797 C 75.833 144.986,75.739 144.916,75.973 144.537 C 76.178 144.206,76.141 144.114,75.871 144.281 C 75.375 144.587,73.437 143.785,73.437 143.274 C 73.437 143.081,73.262 143.031,73.047 143.164 C 72.832 143.297,72.656 143.209,72.656 142.969 C 72.656 142.729,72.480 142.641,72.266 142.773 C 72.051 142.906,71.875 142.834,71.875 142.613 C 71.875 142.393,71.582 142.324,71.225 142.461 C 70.791 142.628,70.668 142.561,70.855 142.258 C 71.037 141.963,70.924 141.886,70.528 142.038 C 70.195 142.166,69.922 142.082,69.922 141.851 C 69.922 141.620,69.630 141.543,69.272 141.680 C 68.854 141.841,68.717 141.776,68.887 141.500 C 69.063 141.215,68.703 141.094,67.819 141.141 C 67.085 141.179,66.566 141.343,66.664 141.504 C 66.816 141.753,66.335 141.926,65.625 141.876 C 65.518 141.868,65.430 142.270,65.430 142.769 C 65.430 143.267,65.562 143.594,65.723 143.494 C 65.982 143.334,66.068 143.618,65.991 144.385 C 65.977 144.520,66.373 144.842,66.870 145.101 C 67.367 145.360,67.725 145.790,67.666 146.057 C 67.607 146.324,67.695 146.458,67.862 146.355 C 68.028 146.252,68.692 146.610,69.336 147.150 C 69.981 147.691,70.261 147.998,69.959 147.834 C 69.592 147.634,69.504 147.687,69.693 147.993 C 69.849 148.244,70.100 148.373,70.253 148.279 C 70.405 148.185,70.964 148.461,71.495 148.893 C 72.026 149.324,72.214 149.547,71.912 149.388 C 71.547 149.195,71.458 149.251,71.646 149.555 C 71.802 149.807,72.067 149.928,72.235 149.824 C 72.403 149.720,72.875 149.905,73.282 150.237 C 73.690 150.568,73.760 150.710,73.438 150.552 C 73.115 150.394,72.988 150.416,73.156 150.600 C 73.323 150.784,73.708 150.970,74.011 151.015 C 74.751 151.123,77.344 153.123,77.344 153.585 C 77.344 153.787,77.502 153.855,77.695 153.735 C 77.888 153.616,78.591 154.028,79.257 154.650 C 79.924 155.273,80.469 155.702,80.469 155.603 C 80.469 155.505,80.987 155.730,81.619 156.104 C 82.252 156.478,82.679 156.932,82.567 157.113 C 82.455 157.293,82.509 157.416,82.686 157.385 C 83.484 157.247,84.009 157.456,83.783 157.822 C 83.647 158.042,83.681 158.197,83.858 158.167 C 84.655 158.028,85.181 158.237,84.955 158.603 C 84.819 158.824,84.852 158.979,85.030 158.948 C 85.827 158.809,86.353 159.019,86.127 159.385 C 85.991 159.605,86.024 159.760,86.201 159.729 C 86.999 159.590,87.525 159.800,87.299 160.166 C 87.163 160.386,87.196 160.527,87.373 160.479 C 88.053 160.295,89.453 161.012,89.203 161.417 C 89.050 161.664,89.123 161.727,89.379 161.570 C 89.619 161.421,90.173 161.658,90.611 162.095 C 91.048 162.533,91.494 162.891,91.602 162.891 C 91.709 162.891,91.983 162.891,92.211 162.891 C 92.438 162.891,92.517 163.064,92.386 163.277 C 92.244 163.506,92.419 163.558,92.817 163.406 C 93.278 163.229,93.398 163.294,93.199 163.615 C 93.040 163.872,93.056 164.043,93.233 163.995 C 93.853 163.827,95.322 164.513,95.103 164.867 C 94.981 165.065,95.182 165.110,95.552 164.968 C 96.013 164.791,96.132 164.857,95.933 165.178 C 95.775 165.434,95.790 165.605,95.967 165.557 C 96.587 165.390,98.056 166.075,97.837 166.430 C 97.715 166.627,97.875 166.688,98.192 166.567 C 98.509 166.445,99.133 166.711,99.579 167.157 C 100.025 167.604,100.522 167.971,100.684 167.973 C 101.478 167.986,102.330 168.456,102.134 168.774 C 102.012 168.971,102.213 169.016,102.583 168.874 C 103.035 168.701,103.162 168.765,102.973 169.070 C 102.785 169.375,102.912 169.438,103.364 169.265 C 103.816 169.092,103.943 169.155,103.755 169.460 C 103.566 169.765,103.694 169.829,104.145 169.656 C 104.597 169.482,104.724 169.546,104.536 169.851 C 104.347 170.156,104.475 170.220,104.927 170.046 C 105.378 169.873,105.506 169.937,105.317 170.242 C 105.129 170.547,105.256 170.610,105.708 170.437 C 106.199 170.249,106.293 170.318,106.058 170.697 C 105.857 171.023,105.890 171.121,106.149 170.961 C 106.623 170.668,109.112 171.617,108.770 171.960 C 108.644 172.085,108.773 172.177,109.056 172.165 C 110.320 172.110,110.965 172.296,110.745 172.652 C 110.613 172.866,110.754 172.943,111.062 172.825 C 111.368 172.707,111.862 172.855,112.160 173.153 C 112.458 173.452,112.945 173.615,113.241 173.516 C 113.544 173.415,113.671 173.514,113.530 173.741 C 113.374 173.994,113.595 174.063,114.123 173.925 C 114.663 173.784,114.874 173.854,114.709 174.121 C 114.544 174.387,114.755 174.457,115.295 174.316 C 115.826 174.177,116.045 174.246,115.886 174.504 C 115.747 174.728,115.851 174.904,116.117 174.894 C 117.496 174.845,118.382 175.038,118.191 175.347 C 118.074 175.537,118.195 175.685,118.461 175.676 C 119.849 175.626,120.725 175.820,120.530 176.135 C 120.410 176.330,120.691 176.390,121.154 176.269 C 121.694 176.128,121.905 176.198,121.740 176.465 C 121.576 176.731,121.786 176.801,122.326 176.660 C 122.843 176.525,123.074 176.593,122.924 176.835 C 122.773 177.080,123.069 177.156,123.703 177.035 C 124.359 176.910,124.635 176.987,124.472 177.251 C 124.311 177.511,124.526 177.581,125.061 177.441 C 125.577 177.306,125.809 177.374,125.659 177.616 C 125.507 177.862,125.803 177.938,126.437 177.817 C 127.207 177.669,127.382 177.747,127.146 178.129 C 126.945 178.453,126.986 178.541,127.260 178.372 C 127.781 178.050,130.910 178.508,130.684 178.873 C 130.596 179.017,131.170 179.071,131.961 178.995 C 133.042 178.890,133.253 178.956,132.813 179.261 C 132.383 179.557,132.617 179.603,133.691 179.430 C 134.497 179.301,135.156 179.356,135.156 179.554 C 135.156 179.752,135.552 179.917,136.035 179.921 C 139.524 179.950,141.161 180.154,140.430 180.471 C 139.948 180.679,140.607 180.720,142.151 180.577 C 143.616 180.441,144.563 180.492,144.434 180.700 C 144.305 180.908,147.488 181.055,152.147 181.055 C 156.808 181.055,159.989 180.908,159.861 180.699 C 159.733 180.492,160.763 180.434,162.341 180.560 C 164.074 180.698,164.690 180.656,164.063 180.440 C 163.259 180.164,163.374 180.121,164.713 180.196 C 165.608 180.247,166.248 180.138,166.134 179.954 C 166.021 179.770,166.521 179.671,167.247 179.734 C 167.972 179.796,168.793 179.707,169.071 179.535 C 169.348 179.364,170.049 179.333,170.628 179.467 C 171.453 179.659,171.554 179.619,171.094 179.281 C 170.633 178.943,170.775 178.883,171.757 179.003 C 172.504 179.094,172.911 179.002,172.770 178.775 C 172.624 178.538,173.038 178.490,173.865 178.649 C 174.870 178.843,175.052 178.802,174.609 178.484 C 174.148 178.153,174.248 178.100,175.086 178.233 C 175.732 178.336,176.054 178.250,175.907 178.012 C 175.759 177.773,176.062 177.697,176.688 177.817 C 177.250 177.924,177.618 177.862,177.504 177.678 C 177.320 177.379,178.228 177.188,179.590 177.239 C 179.858 177.249,180.078 177.089,180.078 176.883 C 180.078 176.678,180.452 176.628,180.908 176.773 C 181.467 176.951,181.651 176.895,181.471 176.604 C 181.225 176.206,181.796 176.018,183.105 176.067 C 183.374 176.077,183.594 175.910,183.594 175.696 C 183.594 175.482,183.867 175.412,184.200 175.540 C 184.593 175.690,184.709 175.615,184.530 175.325 C 184.341 175.020,184.522 174.947,185.096 175.097 C 185.559 175.219,185.840 175.158,185.720 174.964 C 185.519 174.639,186.174 174.460,187.398 174.504 C 187.664 174.513,187.767 174.335,187.627 174.108 C 187.466 173.848,187.620 173.791,188.042 173.953 C 188.440 174.105,188.616 174.053,188.474 173.824 C 188.256 173.471,188.879 173.287,190.133 173.332 C 190.399 173.341,190.502 173.163,190.361 172.936 C 190.196 172.669,190.366 172.623,190.842 172.806 C 191.247 172.961,191.443 172.953,191.278 172.788 C 190.877 172.388,194.882 170.638,195.453 170.964 C 195.698 171.104,195.765 171.072,195.603 170.893 C 195.224 170.475,199.183 168.291,199.719 168.622 C 199.969 168.777,200.000 168.675,199.801 168.353 C 199.569 167.978,199.659 167.904,200.127 168.084 C 200.524 168.236,200.736 168.149,200.679 167.857 C 200.628 167.596,200.905 167.409,201.296 167.441 C 201.686 167.474,201.907 167.402,201.786 167.281 C 201.444 166.939,203.078 165.940,203.526 166.217 C 203.746 166.353,203.877 166.232,203.818 165.947 C 203.757 165.653,204.018 165.455,204.421 165.488 C 204.811 165.521,205.033 165.450,204.914 165.331 C 204.575 164.991,207.101 163.278,207.541 163.550 C 207.763 163.687,207.812 163.597,207.654 163.342 C 207.401 162.932,207.888 162.709,208.720 162.854 C 208.898 162.885,208.931 162.730,208.795 162.510 C 208.569 162.144,209.095 161.934,209.892 162.073 C 210.069 162.104,210.103 161.949,209.967 161.728 C 209.831 161.508,209.906 161.306,210.133 161.279 C 210.361 161.252,210.708 161.208,210.905 161.182 C 211.102 161.155,211.410 160.973,211.589 160.777 C 211.778 160.571,211.709 160.539,211.426 160.703 C 211.157 160.857,210.938 160.906,210.938 160.810 C 210.938 160.536,212.935 159.299,213.516 159.214 C 213.804 159.172,214.177 158.987,214.344 158.803 C 214.512 158.619,214.385 158.598,214.063 158.755 C 213.740 158.913,213.810 158.771,214.218 158.440 C 214.625 158.109,215.113 157.933,215.302 158.049 C 215.490 158.166,215.596 158.028,215.537 157.744 C 215.478 157.459,215.725 157.224,216.086 157.222 C 216.447 157.219,216.886 157.059,217.062 156.866 C 217.248 156.663,217.136 156.638,216.797 156.807 C 216.475 156.968,216.645 156.746,217.177 156.314 C 217.708 155.883,218.306 155.631,218.506 155.755 C 218.707 155.879,218.757 155.796,218.617 155.570 C 218.399 155.217,219.166 154.632,219.987 154.526 C 220.130 154.507,220.394 154.332,220.573 154.137 C 220.766 153.926,220.660 153.909,220.313 154.096 C 219.866 154.336,219.831 154.298,220.164 153.936 C 220.404 153.675,220.932 153.406,221.336 153.339 C 221.740 153.272,222.028 153.025,221.977 152.792 C 221.890 152.398,223.390 151.348,223.828 151.496 C 223.936 151.533,224.024 151.343,224.024 151.074 C 224.025 150.806,224.377 150.586,224.806 150.585 C 225.235 150.585,225.586 150.359,225.586 150.083 C 225.586 149.510,226.578 148.792,227.005 149.056 C 227.162 149.152,227.417 149.026,227.572 148.774 C 227.760 148.470,227.671 148.414,227.306 148.606 C 227.005 148.766,227.192 148.543,227.723 148.111 C 228.255 147.680,228.814 147.404,228.966 147.498 C 229.118 147.592,229.370 147.463,229.526 147.212 C 229.714 146.907,229.625 146.851,229.260 147.044 C 228.958 147.203,229.145 146.980,229.677 146.549 C 230.208 146.117,230.767 145.841,230.919 145.935 C 231.071 146.029,231.323 145.901,231.479 145.649 C 231.655 145.364,231.592 145.296,231.310 145.471 C 231.062 145.624,230.859 145.681,230.859 145.597 C 230.859 145.187,234.312 143.032,234.581 143.275 C 234.751 143.429,234.776 143.353,234.635 143.107 C 234.389 142.677,235.402 141.988,236.064 142.135 C 236.241 142.175,236.286 142.045,236.164 141.847 C 235.941 141.486,237.026 140.830,237.627 140.963 C 237.804 141.003,237.843 140.864,237.713 140.654 C 237.424 140.186,238.840 139.372,239.269 139.760 C 239.439 139.913,239.463 139.838,239.323 139.592 C 239.077 139.161,240.089 138.472,240.752 138.620 C 240.929 138.659,240.987 138.551,240.881 138.380 C 240.653 138.011,244.810 135.026,245.550 135.026 C 245.830 135.026,245.969 134.880,245.858 134.701 C 245.661 134.382,246.294 134.205,247.070 134.361 C 247.285 134.405,247.330 134.309,247.170 134.150 C 246.746 133.725,248.352 132.717,248.926 133.048 C 249.195 133.202,249.283 133.184,249.124 133.008 C 248.712 132.554,250.290 131.537,250.880 131.876 C 251.148 132.030,251.236 132.012,251.076 131.835 C 250.686 131.405,253.054 129.988,253.599 130.325 C 253.876 130.496,253.914 130.406,253.707 130.072 C 253.473 129.693,253.567 129.624,254.058 129.812 C 254.509 129.985,254.637 129.922,254.448 129.617 C 254.260 129.312,254.387 129.248,254.839 129.421 C 255.291 129.595,255.418 129.531,255.230 129.226 C 255.041 128.921,255.169 128.857,255.620 129.031 C 256.072 129.204,256.199 129.140,256.011 128.835 C 255.822 128.530,255.950 128.467,256.402 128.640 C 256.853 128.813,256.981 128.750,256.792 128.445 C 256.604 128.140,256.731 128.076,257.183 128.249 C 257.634 128.423,257.762 128.359,257.573 128.054 C 257.385 127.749,257.512 127.685,257.964 127.859 C 258.416 128.032,258.543 127.968,258.355 127.664 C 258.166 127.359,258.294 127.295,258.745 127.468 C 259.114 127.610,259.319 127.569,259.200 127.377 C 258.929 126.939,261.276 126.093,261.824 126.432 C 262.078 126.589,262.110 126.490,261.910 126.166 C 261.676 125.787,261.770 125.717,262.261 125.906 C 262.709 126.078,262.840 126.015,262.655 125.715 C 262.466 125.411,262.647 125.338,263.221 125.488 C 263.684 125.609,263.973 125.562,263.862 125.382 C 263.590 124.941,265.112 124.488,265.682 124.840 C 265.984 125.027,266.030 124.949,265.820 124.608 C 265.584 124.226,265.718 124.152,266.346 124.316 C 266.809 124.437,267.106 124.403,267.006 124.240 C 266.749 123.825,269.840 122.950,270.381 123.284 C 270.671 123.464,270.715 123.382,270.507 123.046 C 270.271 122.664,270.405 122.589,271.033 122.754 C 271.497 122.875,271.791 122.836,271.687 122.667 C 271.442 122.272,273.778 121.798,274.319 122.132 C 274.577 122.292,274.612 122.195,274.414 121.874 C 274.166 121.474,274.387 121.418,275.428 121.618 C 276.435 121.812,276.616 121.772,276.172 121.451 C 275.729 121.132,275.968 121.082,277.148 121.246 C 278.306 121.406,278.559 121.356,278.125 121.052 C 277.692 120.748,277.993 120.693,279.277 120.841 C 280.517 120.983,280.852 120.927,280.448 120.644 C 280.049 120.365,280.458 120.314,281.836 120.473 C 283.262 120.637,283.631 120.587,283.203 120.287 C 282.778 119.990,283.316 119.931,285.156 120.073 C 286.867 120.205,287.313 120.164,286.523 119.947 C 285.784 119.743,288.062 119.607,292.699 119.577 C 296.740 119.552,299.965 119.663,299.866 119.824 C 299.768 119.985,300.768 120.123,302.089 120.131 C 305.502 120.150,311.550 121.105,310.885 121.520 C 310.567 121.718,310.983 121.765,311.914 121.636 C 313.095 121.473,313.333 121.523,312.891 121.842 C 312.447 122.162,312.627 122.203,313.635 122.009 C 314.492 121.844,314.878 121.894,314.721 122.148 C 314.570 122.393,314.867 122.469,315.500 122.348 C 316.125 122.228,316.429 122.304,316.281 122.543 C 316.134 122.781,316.456 122.868,317.102 122.765 C 317.939 122.631,318.040 122.684,317.578 123.016 C 317.130 123.338,317.278 123.382,318.210 123.203 C 319.022 123.048,319.604 123.158,319.957 123.535 C 320.247 123.846,320.825 124.012,321.241 123.903 C 321.713 123.779,321.901 123.861,321.740 124.121 C 321.576 124.387,321.786 124.457,322.326 124.316 C 322.866 124.175,323.077 124.245,322.912 124.511 C 322.747 124.778,322.958 124.848,323.498 124.707 C 324.038 124.565,324.249 124.636,324.084 124.902 C 323.919 125.168,324.130 125.239,324.670 125.097 C 325.201 124.958,325.420 125.028,325.261 125.285 C 325.122 125.509,325.226 125.685,325.492 125.676 C 326.716 125.632,327.371 125.811,327.171 126.135 C 327.051 126.330,327.331 126.390,327.795 126.269 C 328.368 126.119,328.549 126.192,328.361 126.496 C 328.176 126.796,328.306 126.859,328.755 126.687 C 329.183 126.523,329.331 126.582,329.165 126.850 C 328.997 127.122,329.203 127.193,329.748 127.050 C 330.321 126.901,330.502 126.973,330.314 127.278 C 330.129 127.577,330.260 127.640,330.708 127.468 C 331.199 127.280,331.293 127.350,331.058 127.728 C 330.858 128.052,330.891 128.152,331.145 127.995 C 331.693 127.656,334.039 128.501,333.768 128.940 C 333.650 129.131,333.855 129.172,334.223 129.031 C 334.714 128.842,334.808 128.912,334.574 129.291 C 334.372 129.617,334.406 129.714,334.666 129.554 C 335.183 129.234,338.378 130.632,337.998 131.012 C 337.845 131.166,338.050 131.164,338.455 131.009 C 338.937 130.824,339.101 130.871,338.931 131.147 C 338.763 131.419,338.968 131.490,339.514 131.347 C 340.048 131.208,340.264 131.277,340.103 131.537 C 339.932 131.814,340.278 131.851,341.168 131.650 C 343.003 131.237,343.246 131.029,343.439 129.713 C 343.532 129.077,343.465 128.646,343.289 128.755 C 342.997 128.935,342.808 128.360,342.922 127.637 C 342.948 127.476,342.749 127.388,342.480 127.441 C 342.212 127.495,342.040 127.306,342.100 127.022 C 342.159 126.737,342.071 126.589,341.904 126.692 C 341.737 126.795,341.074 126.437,340.429 125.897 C 339.785 125.356,339.505 125.049,339.806 125.213 C 340.162 125.406,340.261 125.359,340.087 125.077 C 339.939 124.839,339.589 124.732,339.308 124.840 C 339.027 124.947,338.549 124.730,338.246 124.357 C 337.767 123.766,337.771 123.721,338.281 124.011 C 338.606 124.196,338.732 124.195,338.563 124.010 C 338.396 123.826,338.023 123.641,337.734 123.598 C 337.154 123.513,335.156 122.276,335.156 122.002 C 335.156 121.907,335.376 121.955,335.645 122.110 C 335.924 122.270,335.995 122.241,335.812 122.040 C 335.636 121.847,335.197 121.687,334.836 121.685 C 334.475 121.682,334.224 121.460,334.277 121.191 C 334.331 120.923,334.243 120.724,334.082 120.749 C 333.297 120.873,332.792 120.662,333.014 120.303 C 333.150 120.083,333.116 119.928,332.939 119.958 C 332.141 120.097,331.616 119.888,331.842 119.522 C 331.978 119.301,331.944 119.146,331.767 119.177 C 331.010 119.309,330.438 119.115,330.637 118.794 C 330.755 118.604,330.545 118.472,330.172 118.501 C 329.796 118.531,329.540 118.323,329.600 118.037 C 329.659 117.753,329.527 117.631,329.307 117.767 C 328.801 118.080,327.248 117.023,327.639 116.632 C 327.799 116.472,327.754 116.377,327.539 116.420 C 326.667 116.596,326.142 116.381,326.404 115.955 C 326.577 115.676,326.512 115.610,326.233 115.783 C 325.678 116.126,324.112 115.092,324.514 114.648 C 324.674 114.472,324.585 114.454,324.317 114.608 C 323.752 114.933,322.133 113.935,322.549 113.519 C 322.702 113.365,322.497 113.367,322.092 113.522 C 321.541 113.734,321.436 113.675,321.676 113.287 C 321.882 112.953,321.844 112.864,321.568 113.034 C 321.023 113.371,318.655 111.954,319.044 111.525 C 319.205 111.348,319.132 111.320,318.883 111.462 C 318.298 111.797,317.126 111.352,317.405 110.901 C 317.523 110.711,317.317 110.672,316.948 110.813 C 316.497 110.986,316.369 110.923,316.558 110.618 C 316.746 110.313,316.619 110.249,316.167 110.422 C 315.715 110.596,315.588 110.532,315.777 110.227 C 315.965 109.922,315.838 109.858,315.386 110.032 C 314.895 110.220,314.801 110.150,315.035 109.772 C 315.237 109.446,315.203 109.348,314.944 109.508 C 314.419 109.833,312.001 108.833,312.384 108.449 C 312.542 108.291,312.340 108.289,311.936 108.444 C 311.427 108.639,311.286 108.587,311.480 108.274 C 311.668 107.969,311.541 107.905,311.089 108.079 C 310.661 108.243,310.513 108.184,310.679 107.915 C 310.847 107.643,310.641 107.573,310.096 107.715 C 309.556 107.856,309.345 107.786,309.510 107.520 C 309.674 107.253,309.464 107.183,308.924 107.325 C 308.384 107.466,308.173 107.396,308.338 107.129 C 308.503 106.863,308.292 106.793,307.752 106.934 C 307.124 107.098,306.990 107.024,307.226 106.642 C 307.431 106.310,307.390 106.224,307.110 106.397 C 306.556 106.739,304.630 106.269,304.886 105.854 C 304.992 105.682,304.700 105.641,304.236 105.762 C 303.696 105.903,303.486 105.833,303.650 105.567 C 303.815 105.300,303.605 105.230,303.064 105.371 C 302.524 105.513,302.314 105.442,302.479 105.176 C 302.643 104.910,302.433 104.840,301.893 104.981 C 301.301 105.136,301.136 105.062,301.339 104.733 C 301.550 104.392,301.339 104.338,300.560 104.534 C 299.885 104.703,299.582 104.658,299.735 104.410 C 299.883 104.171,299.580 104.095,298.954 104.215 C 298.351 104.330,298.026 104.255,298.164 104.034 C 298.301 103.811,297.885 103.719,297.147 103.809 C 296.194 103.926,296.037 103.865,296.484 103.554 C 296.916 103.254,296.659 103.204,295.508 103.364 C 294.347 103.525,294.096 103.474,294.531 103.168 C 294.966 102.863,294.715 102.812,293.555 102.973 C 292.310 103.146,292.112 103.096,292.578 102.730 C 293.071 102.343,293.044 102.309,292.406 102.519 C 291.509 102.812,286.275 102.354,286.494 102.001 C 286.576 101.867,283.514 101.758,279.688 101.758 C 275.861 101.758,272.824 101.908,272.937 102.092 M292.688 150.678 C 293.715 150.759,295.297 150.758,296.203 150.676 C 297.110 150.594,296.270 150.528,294.336 150.529 C 292.402 150.530,291.661 150.597,292.688 150.678 " stroke="none" fill="#8ed4a4" fill-rule="evenodd"></path><path id="path3" d="M269.531 102.127 C 265.478 102.710,258.443 104.277,258.704 104.537 C 258.794 104.627,260.408 104.335,262.291 103.888 C 273.139 101.311,285.072 101.309,296.863 103.883 C 300.190 104.609,302.350 104.782,299.725 104.112 C 290.741 101.818,277.652 100.958,269.531 102.127 M253.481 106.004 C 241.632 110.144,229.345 117.642,211.702 131.500 C 193.255 145.989,181.204 153.246,169.223 157.081 C 167.040 157.780,165.324 158.423,165.410 158.509 C 165.702 158.801,173.112 156.219,177.101 154.436 C 187.121 149.958,194.556 145.163,210.352 132.989 C 232.513 115.909,242.340 109.978,255.664 105.641 C 257.168 105.152,258.135 104.739,257.813 104.723 C 257.490 104.708,255.541 105.284,253.481 106.004 M305.966 106.449 C 319.946 111.218,343.359 125.915,343.359 129.922 C 343.359 132.280,341.270 132.094,334.872 129.166 C 330.093 126.980,321.855 123.818,320.998 123.842 C 320.728 123.849,322.793 124.705,325.586 125.744 C 328.379 126.783,332.678 128.552,335.139 129.675 C 342.425 132.998,345.976 132.301,343.082 128.114 C 339.027 122.247,307.096 104.321,301.406 104.717 C 301.170 104.734,303.222 105.513,305.966 106.449 M293.945 119.912 C 302.615 120.217,308.239 120.911,314.648 122.468 C 316.797 122.990,318.994 123.522,319.531 123.650 C 320.237 123.817,320.345 123.779,319.922 123.512 C 319.101 122.993,311.502 121.238,306.836 120.488 C 304.361 120.091,299.782 119.817,294.336 119.742 L 285.742 119.624 293.945 119.912 M283.301 120.191 C 283.677 120.289,284.292 120.289,284.668 120.191 C 285.044 120.093,284.736 120.013,283.984 120.013 C 283.232 120.013,282.925 120.093,283.301 120.191 M276.953 121.069 C 261.321 124.369,249.278 131.059,225.977 149.384 C 209.318 162.486,200.309 168.399,190.595 172.612 C 183.260 175.793,183.139 175.850,184.375 175.542 C 192.497 173.521,206.716 164.875,223.393 151.816 C 243.083 136.398,249.350 132.135,258.901 127.664 C 264.355 125.111,273.472 122.085,278.562 121.140 C 280.792 120.725,282.090 120.382,281.445 120.377 C 280.801 120.372,278.779 120.683,276.953 121.069 M66.406 141.300 C 65.154 141.777,64.931 142.831,65.842 143.968 C 66.429 144.701,66.435 144.698,66.037 143.873 C 65.396 142.546,65.529 142.191,66.895 141.598 C 68.090 141.078,67.667 140.820,66.406 141.300 M75.781 144.727 C 77.178 145.458,78.496 146.056,78.711 146.056 C 78.926 146.056,77.959 145.458,76.563 144.727 C 75.166 143.995,73.848 143.397,73.633 143.397 C 73.418 143.397,74.385 143.995,75.781 144.727 M66.880 145.451 C 68.205 146.776,77.344 153.721,77.344 153.403 C 77.344 153.312,75.366 151.737,72.949 149.903 C 70.532 148.069,68.220 146.198,67.811 145.745 C 67.401 145.292,66.905 144.922,66.708 144.922 C 66.512 144.922,66.589 145.160,66.880 145.451 M81.250 147.266 C 82.002 147.677,82.793 148.014,83.008 148.014 C 83.223 148.014,82.783 147.677,82.031 147.266 C 81.279 146.854,80.488 146.517,80.273 146.517 C 80.059 146.517,80.498 146.854,81.250 147.266 M84.375 148.633 C 84.912 148.940,85.527 149.191,85.742 149.191 C 85.957 149.191,85.693 148.940,85.156 148.633 C 84.619 148.326,84.004 148.075,83.789 148.075 C 83.574 148.075,83.838 148.326,84.375 148.633 M88.234 150.204 C 89.390 150.752,90.408 151.129,90.496 151.040 C 90.585 150.951,89.903 150.574,88.981 150.201 C 86.308 149.121,85.954 149.122,88.234 150.204 M285.307 151.243 C 285.149 151.499,284.802 151.541,281.543 151.690 C 280.737 151.727,280.078 151.909,280.078 152.093 C 280.078 152.278,279.639 152.318,279.102 152.183 C 278.489 152.030,278.125 152.104,278.125 152.382 C 278.125 152.633,277.786 152.737,277.344 152.621 C 276.915 152.509,276.457 152.588,276.328 152.798 C 276.199 153.007,275.825 153.075,275.497 152.950 C 275.169 152.824,274.667 152.915,274.382 153.152 C 274.096 153.389,273.679 153.469,273.455 153.331 C 273.230 153.192,273.047 153.284,273.047 153.534 C 273.047 153.785,272.789 153.891,272.473 153.770 C 272.158 153.649,271.789 153.730,271.653 153.950 C 271.517 154.170,271.159 154.256,270.859 154.140 C 270.558 154.025,270.313 154.120,270.313 154.351 C 270.313 154.582,270.049 154.670,269.727 154.546 C 269.404 154.423,269.141 154.510,269.141 154.742 C 269.141 154.973,268.877 155.061,268.555 154.937 C 268.232 154.813,267.969 154.901,267.969 155.132 C 267.969 155.363,267.705 155.451,267.383 155.327 C 267.061 155.204,266.797 155.292,266.797 155.523 C 266.797 155.754,266.533 155.842,266.211 155.718 C 265.889 155.594,265.625 155.682,265.625 155.913 C 265.625 156.145,265.373 156.237,265.064 156.118 C 264.756 156.000,264.448 156.053,264.381 156.236 C 264.313 156.419,263.906 156.629,263.477 156.702 C 263.047 156.776,262.453 157.066,262.157 157.347 C 261.860 157.628,261.377 157.765,261.082 157.652 C 260.788 157.539,260.547 157.627,260.547 157.848 C 260.547 158.069,260.371 158.141,260.156 158.008 C 259.941 157.875,259.766 157.963,259.766 158.203 C 259.766 158.443,259.590 158.531,259.375 158.398 C 259.160 158.266,258.984 158.326,258.984 158.532 C 258.984 158.982,256.805 159.800,256.479 159.473 C 256.353 159.348,256.250 159.479,256.250 159.766 C 256.250 160.052,256.141 160.178,256.008 160.045 C 255.875 159.912,255.509 160.060,255.195 160.374 C 254.881 160.688,254.463 160.845,254.265 160.723 C 254.068 160.601,253.906 160.697,253.906 160.938 C 253.906 161.178,253.730 161.266,253.516 161.133 C 253.301 161.000,253.125 161.107,253.125 161.370 C 253.125 161.634,253.018 161.742,252.888 161.612 C 252.758 161.482,252.285 161.716,251.838 162.133 C 251.391 162.550,250.706 162.891,250.317 162.891 C 249.928 162.891,249.609 163.077,249.609 163.304 C 249.609 163.532,249.434 163.609,249.219 163.477 C 249.004 163.344,248.828 163.451,248.828 163.714 C 248.828 163.977,248.714 164.078,248.574 163.938 C 248.434 163.798,248.126 163.935,247.890 164.242 C 247.654 164.550,247.212 164.854,246.908 164.920 C 246.603 164.985,246.025 165.353,245.624 165.737 C 245.222 166.121,244.723 166.329,244.514 166.200 C 244.306 166.072,244.030 166.240,243.902 166.575 C 243.773 166.909,243.529 167.097,243.359 166.992 C 243.190 166.887,242.946 167.075,242.817 167.410 C 242.689 167.744,242.425 167.920,242.231 167.800 C 242.037 167.681,241.774 167.856,241.645 168.191 C 241.517 168.526,241.253 168.701,241.059 168.582 C 240.865 168.462,240.602 168.638,240.473 168.972 C 240.345 169.307,240.081 169.483,239.887 169.363 C 239.694 169.243,239.430 169.419,239.302 169.754 C 239.173 170.088,238.909 170.264,238.716 170.144 C 238.522 170.024,238.253 170.214,238.118 170.566 C 237.983 170.918,237.760 171.094,237.623 170.957 C 237.487 170.820,237.127 171.061,236.825 171.493 C 236.522 171.925,236.129 172.189,235.952 172.079 C 235.774 171.969,235.518 172.167,235.383 172.519 C 235.248 172.871,235.048 173.069,234.938 172.959 C 234.828 172.849,234.193 173.268,233.526 173.891 C 232.860 174.514,232.229 174.937,232.124 174.833 C 232.020 174.728,231.591 175.031,231.172 175.505 C 230.752 175.979,230.546 176.107,230.713 175.789 C 230.880 175.470,230.246 175.951,229.304 176.856 C 228.362 177.762,227.531 178.442,227.457 178.368 C 227.383 178.295,226.685 178.818,225.905 179.532 C 225.126 180.246,224.312 180.722,224.098 180.589 C 223.883 180.457,223.827 180.542,223.974 180.779 C 224.239 181.209,222.754 182.281,222.139 182.105 C 221.962 182.054,221.920 182.179,222.047 182.384 C 222.173 182.589,221.923 182.869,221.490 183.006 C 221.057 183.143,220.703 183.420,220.703 183.620 C 220.703 183.820,220.519 183.984,220.294 183.984 C 220.069 183.984,219.439 184.468,218.895 185.059 C 218.351 185.649,218.027 185.869,218.175 185.547 C 218.324 185.225,217.993 185.488,217.440 186.133 C 216.887 186.777,216.428 187.163,216.420 186.990 C 216.413 186.817,215.953 187.168,215.398 187.771 C 214.844 188.374,214.511 188.604,214.660 188.281 C 214.808 187.959,214.458 188.223,213.882 188.867 C 213.306 189.512,212.972 189.775,213.140 189.453 C 213.309 189.131,212.771 189.523,211.945 190.323 C 211.120 191.124,210.265 191.669,210.045 191.533 C 209.825 191.397,209.759 191.470,209.898 191.696 C 210.146 192.096,209.108 192.773,208.467 192.630 C 208.290 192.591,208.245 192.720,208.367 192.918 C 208.554 193.221,207.503 193.907,207.093 193.749 C 207.020 193.721,206.718 194.017,206.422 194.408 C 206.126 194.798,205.879 195.003,205.872 194.863 C 205.865 194.723,205.314 195.118,204.648 195.740 C 203.981 196.363,203.297 196.786,203.126 196.680 C 202.956 196.575,202.711 196.763,202.583 197.097 C 202.454 197.432,202.191 197.608,201.997 197.488 C 201.803 197.368,201.539 197.544,201.411 197.879 C 201.282 198.213,201.019 198.389,200.825 198.269 C 200.631 198.149,200.367 198.325,200.239 198.660 C 200.111 198.994,199.828 199.159,199.612 199.025 C 199.396 198.891,199.219 198.948,199.219 199.151 C 199.219 199.548,197.631 200.694,196.838 200.870 C 196.572 200.928,196.025 201.291,195.624 201.674 C 195.222 202.058,194.697 202.251,194.457 202.102 C 194.191 201.938,194.129 202.009,194.299 202.283 C 194.548 202.686,194.081 202.910,193.262 202.781 C 193.101 202.755,192.969 202.921,192.969 203.148 C 192.969 203.376,192.793 203.453,192.578 203.320 C 192.363 203.188,192.188 203.261,192.188 203.483 C 192.188 203.705,191.660 204.159,191.016 204.492 C 190.371 204.825,189.844 204.972,189.844 204.818 C 189.844 204.664,189.607 204.862,189.317 205.258 C 188.985 205.712,188.601 205.862,188.280 205.663 C 187.980 205.478,187.865 205.502,188.002 205.723 C 188.244 206.116,180.914 209.950,180.572 209.609 C 180.464 209.501,180.110 209.678,179.786 210.002 C 179.462 210.326,178.955 210.499,178.661 210.386 C 178.366 210.273,178.125 210.361,178.125 210.582 C 178.125 210.803,177.949 210.875,177.734 210.742 C 177.520 210.609,177.344 210.706,177.344 210.956 C 177.344 211.207,177.080 211.311,176.758 211.187 C 176.436 211.063,176.172 211.151,176.172 211.382 C 176.172 211.613,175.899 211.698,175.566 211.570 C 175.232 211.442,175.050 211.483,175.160 211.662 C 175.395 212.042,172.683 212.953,172.201 212.655 C 172.022 212.545,171.875 212.659,171.875 212.909 C 171.875 213.160,171.623 213.268,171.314 213.150 C 171.006 213.031,170.690 213.124,170.613 213.355 C 170.536 213.587,169.910 213.796,169.222 213.822 C 168.534 213.847,167.970 214.020,167.970 214.206 C 167.969 214.392,167.617 214.452,167.188 214.340 C 166.758 214.228,166.406 214.315,166.406 214.535 C 166.406 214.755,166.055 214.843,165.625 214.731 C 165.195 214.618,164.844 214.706,164.844 214.926 C 164.844 215.146,164.492 215.234,164.062 215.121 C 163.633 215.009,163.281 215.095,163.281 215.313 C 163.281 215.544,162.861 215.604,162.272 215.456 C 161.543 215.273,161.343 215.333,161.551 215.670 C 161.763 216.013,161.507 216.071,160.588 215.887 C 159.707 215.711,159.417 215.767,159.609 216.078 C 159.795 216.380,159.554 216.457,158.847 216.322 C 158.278 216.213,157.812 216.298,157.813 216.510 C 157.813 216.744,157.182 216.796,156.221 216.642 C 155.048 216.455,154.705 216.509,154.915 216.849 C 155.120 217.181,154.872 217.244,154.024 217.074 C 153.377 216.945,152.662 217.025,152.435 217.253 C 152.207 217.480,151.302 217.598,150.424 217.514 C 149.546 217.431,148.828 217.520,148.828 217.712 C 148.828 217.908,147.154 217.972,145.020 217.857 C 142.722 217.733,141.908 217.769,142.969 217.947 C 144.144 218.144,142.484 218.261,137.965 218.301 C 134.246 218.333,131.286 218.228,131.385 218.066 C 131.485 217.905,129.957 217.825,127.990 217.887 C 125.605 217.963,124.600 217.876,124.974 217.625 C 125.346 217.374,124.727 217.322,123.118 217.468 C 121.381 217.625,120.703 217.555,120.703 217.219 C 120.703 216.961,120.527 216.860,120.312 216.993 C 119.660 217.395,114.439 216.745,114.716 216.296 C 114.865 216.056,114.771 216.015,114.482 216.193 C 113.919 216.541,107.812 215.669,107.813 215.241 C 107.813 215.082,107.347 215.041,106.778 215.150 C 106.094 215.281,105.832 215.204,106.005 214.924 C 106.184 214.635,105.798 214.565,104.794 214.704 C 103.673 214.859,103.461 214.807,103.906 214.486 C 104.350 214.166,104.170 214.126,103.162 214.319 C 102.121 214.519,101.901 214.464,102.148 214.063 C 102.351 213.734,102.312 213.646,102.037 213.815 C 101.433 214.188,98.405 213.650,98.673 213.217 C 98.800 213.010,98.442 212.973,97.826 213.127 C 97.052 213.321,96.837 213.268,97.045 212.932 C 97.252 212.596,97.037 212.542,96.264 212.737 C 95.443 212.943,95.269 212.887,95.510 212.497 C 95.715 212.164,95.670 212.084,95.379 212.263 C 94.808 212.616,92.132 212.124,92.387 211.712 C 92.493 211.541,92.227 211.493,91.797 211.605 C 91.367 211.718,91.016 211.630,91.016 211.410 C 91.016 211.190,90.664 211.103,90.234 211.215 C 89.780 211.334,89.453 211.227,89.453 210.960 C 89.453 210.707,89.290 210.602,89.090 210.725 C 88.614 211.020,85.151 210.090,85.375 209.727 C 85.470 209.574,85.169 209.547,84.705 209.668 C 84.165 209.810,83.955 209.739,84.119 209.473 C 84.281 209.211,84.087 209.133,83.594 209.262 C 83.164 209.374,82.813 209.275,82.813 209.042 C 82.813 208.809,82.549 208.719,82.227 208.843 C 81.904 208.967,81.641 208.890,81.641 208.672 C 81.641 208.454,81.262 208.375,80.798 208.497 C 80.171 208.661,80.037 208.586,80.273 208.204 C 80.478 207.872,80.437 207.786,80.156 207.959 C 79.603 208.302,77.677 207.831,77.933 207.417 C 78.039 207.245,77.747 207.203,77.283 207.325 C 76.743 207.466,76.533 207.396,76.697 207.129 C 76.862 206.863,76.651 206.793,76.111 206.934 C 75.571 207.075,75.361 207.005,75.525 206.739 C 75.690 206.472,75.480 206.402,74.939 206.543 C 74.399 206.685,74.189 206.614,74.354 206.348 C 74.518 206.082,74.308 206.011,73.768 206.153 C 73.194 206.303,73.013 206.230,73.201 205.925 C 73.381 205.635,73.265 205.560,72.872 205.710 C 72.538 205.838,72.266 205.768,72.266 205.554 C 72.266 205.340,72.046 205.173,71.777 205.183 C 70.552 205.229,69.894 205.049,70.095 204.724 C 70.215 204.529,69.934 204.469,69.471 204.590 C 68.897 204.740,68.716 204.667,68.905 204.363 C 69.084 204.073,68.968 203.997,68.575 204.148 C 68.242 204.276,67.969 204.205,67.969 203.991 C 67.969 203.777,67.749 203.611,67.480 203.621 C 66.255 203.666,65.597 203.486,65.798 203.161 C 65.918 202.967,65.637 202.906,65.174 203.028 C 64.642 203.167,64.424 203.097,64.583 202.840 C 64.722 202.616,64.618 202.440,64.351 202.449 C 63.135 202.493,62.472 202.315,62.668 201.997 C 62.786 201.807,62.664 201.659,62.398 201.668 C 61.062 201.716,60.521 201.530,60.779 201.112 C 60.941 200.850,60.888 200.766,60.652 200.912 C 60.134 201.232,57.750 200.417,58.004 200.006 C 58.109 199.836,57.977 199.705,57.711 199.715 C 56.457 199.760,55.834 199.575,56.052 199.223 C 56.194 198.994,56.018 198.942,55.620 199.094 C 55.169 199.268,55.041 199.204,55.230 198.899 C 55.407 198.612,55.306 198.525,54.953 198.660 C 54.648 198.777,54.155 198.643,53.859 198.362 C 53.563 198.081,53.101 197.834,52.832 197.813 C 51.698 197.722,51.529 197.636,51.755 197.270 C 51.887 197.056,51.746 196.979,51.438 197.097 C 51.132 197.215,50.640 197.081,50.343 196.800 C 50.047 196.519,49.585 196.271,49.316 196.250 C 48.166 196.158,48.016 196.070,48.279 195.643 C 48.443 195.379,48.388 195.297,48.147 195.446 C 47.630 195.766,44.434 194.368,44.814 193.988 C 44.968 193.834,44.762 193.836,44.358 193.991 C 43.806 194.203,43.702 194.144,43.942 193.756 C 44.124 193.461,44.108 193.333,43.905 193.459 C 43.708 193.580,42.811 193.545,41.910 193.380 C 41.009 193.215,40.291 193.187,40.315 193.318 C 40.339 193.448,40.258 193.818,40.136 194.141 C 39.695 195.301,39.532 196.482,39.839 196.292 C 40.155 196.096,40.802 197.211,40.687 197.754 C 40.653 197.915,40.757 198.010,40.918 197.964 C 41.513 197.795,42.982 198.881,42.724 199.299 C 42.577 199.536,42.634 199.621,42.851 199.487 C 43.067 199.353,43.578 199.515,43.985 199.846 C 44.393 200.177,44.463 200.319,44.141 200.162 C 43.796 199.993,43.689 200.021,43.880 200.230 C 44.059 200.426,44.367 200.608,44.564 200.635 C 44.761 200.662,45.108 200.706,45.336 200.732 C 45.563 200.759,45.638 200.961,45.502 201.182 C 45.366 201.402,45.399 201.557,45.576 201.526 C 46.435 201.377,46.897 201.605,46.640 202.051 C 46.486 202.319,46.498 202.413,46.668 202.260 C 47.126 201.847,48.504 202.701,48.193 203.205 C 48.032 203.465,48.105 203.526,48.376 203.358 C 48.917 203.024,50.510 204.047,50.095 204.462 C 49.935 204.622,49.980 204.717,50.195 204.674 C 51.032 204.505,51.597 204.706,51.361 205.088 C 51.225 205.308,51.259 205.463,51.436 205.432 C 52.234 205.294,52.759 205.503,52.533 205.869 C 52.397 206.089,52.431 206.244,52.608 206.213 C 53.466 206.064,53.928 206.292,53.671 206.738 C 53.517 207.007,53.532 207.098,53.706 206.941 C 54.115 206.571,57.066 208.222,56.791 208.666 C 56.676 208.852,56.745 208.955,56.943 208.896 C 57.503 208.730,62.102 211.415,61.877 211.778 C 61.768 211.955,61.980 211.985,62.348 211.843 C 62.810 211.666,62.929 211.732,62.730 212.053 C 62.572 212.309,62.587 212.480,62.764 212.432 C 63.478 212.239,64.843 212.967,64.591 213.407 C 64.446 213.660,64.465 213.743,64.633 213.592 C 65.012 213.250,68.750 215.103,68.750 215.632 C 68.750 215.843,68.882 215.974,69.043 215.923 C 69.591 215.749,71.866 216.886,71.654 217.228 C 71.539 217.416,71.745 217.453,72.114 217.312 C 72.566 217.139,72.693 217.202,72.505 217.507 C 72.316 217.812,72.444 217.876,72.895 217.703 C 73.347 217.529,73.474 217.593,73.286 217.898 C 73.097 218.203,73.225 218.267,73.677 218.093 C 74.128 217.920,74.256 217.984,74.067 218.289 C 73.879 218.593,74.006 218.657,74.458 218.484 C 74.910 218.310,75.037 218.374,74.848 218.679 C 74.660 218.984,74.787 219.048,75.239 218.874 C 75.691 218.701,75.818 218.765,75.630 219.070 C 75.441 219.375,75.569 219.438,76.020 219.265 C 76.472 219.092,76.599 219.155,76.411 219.460 C 76.222 219.765,76.350 219.829,76.802 219.656 C 77.253 219.482,77.381 219.546,77.192 219.851 C 77.004 220.156,77.131 220.220,77.583 220.046 C 78.035 219.873,78.162 219.937,77.973 220.242 C 77.785 220.547,77.912 220.610,78.364 220.437 C 78.855 220.249,78.949 220.318,78.715 220.697 C 78.512 221.026,78.547 221.121,78.811 220.958 C 79.357 220.620,80.525 221.077,80.251 221.521 C 80.134 221.711,80.339 221.750,80.708 221.609 C 81.130 221.447,81.284 221.505,81.123 221.765 C 80.983 221.992,81.086 222.170,81.352 222.160 C 82.605 222.115,83.228 222.300,83.011 222.652 C 82.869 222.881,83.044 222.933,83.442 222.781 C 83.894 222.607,84.021 222.671,83.833 222.976 C 83.644 223.281,83.772 223.345,84.223 223.171 C 84.675 222.998,84.803 223.062,84.614 223.367 C 84.426 223.672,84.553 223.735,85.005 223.562 C 85.456 223.389,85.584 223.452,85.395 223.757 C 85.218 224.044,85.319 224.132,85.672 223.996 C 85.977 223.879,86.471 224.027,86.770 224.325 C 87.068 224.624,87.554 224.787,87.851 224.688 C 88.209 224.568,88.286 224.676,88.080 225.010 C 87.894 225.311,87.926 225.415,88.160 225.270 C 88.676 224.952,92.288 226.332,91.915 226.705 C 91.755 226.864,91.956 226.867,92.361 226.712 C 92.870 226.517,93.011 226.569,92.817 226.882 C 92.635 227.178,92.748 227.254,93.144 227.102 C 93.477 226.974,93.750 227.045,93.750 227.259 C 93.750 227.473,93.970 227.639,94.238 227.629 C 95.493 227.583,96.119 227.768,95.901 228.121 C 95.764 228.342,95.921 228.407,96.269 228.274 C 96.602 228.146,96.875 228.216,96.875 228.430 C 96.875 228.644,97.095 228.811,97.363 228.801 C 98.588 228.756,99.247 228.935,99.046 229.260 C 98.926 229.455,99.206 229.515,99.670 229.394 C 100.243 229.244,100.424 229.317,100.236 229.621 C 100.057 229.912,100.173 229.987,100.566 229.837 C 100.899 229.709,101.172 229.793,101.172 230.024 C 101.172 230.255,101.436 230.343,101.758 230.219 C 102.080 230.096,102.344 230.184,102.344 230.415 C 102.344 230.646,102.607 230.734,102.930 230.610 C 103.252 230.486,103.516 230.563,103.516 230.781 C 103.516 230.999,103.895 231.078,104.358 230.957 C 104.898 230.815,105.108 230.886,104.943 231.152 C 104.779 231.418,104.989 231.489,105.529 231.347 C 105.993 231.226,106.274 231.286,106.154 231.481 C 106.034 231.676,106.482 231.856,107.150 231.882 C 107.818 231.907,108.424 232.108,108.497 232.328 C 108.571 232.549,109.002 232.633,109.455 232.514 C 109.980 232.377,110.185 232.450,110.021 232.715 C 109.860 232.976,110.054 233.055,110.546 232.926 C 110.976 232.813,111.329 232.874,111.329 233.060 C 111.330 233.246,111.893 233.419,112.581 233.444 C 113.269 233.469,113.890 233.663,113.961 233.876 C 114.032 234.088,114.549 234.174,115.111 234.066 C 115.715 233.951,116.036 234.026,115.898 234.250 C 115.769 234.458,115.963 234.628,116.328 234.627 C 118.315 234.625,119.164 234.802,118.936 235.172 C 118.771 235.438,119.053 235.486,119.752 235.310 C 120.500 235.123,120.738 235.175,120.547 235.484 C 120.354 235.795,120.644 235.852,121.526 235.675 C 122.414 235.498,122.698 235.554,122.502 235.871 C 122.307 236.187,122.591 236.244,123.479 236.066 C 124.193 235.923,124.639 235.968,124.516 236.169 C 124.399 236.364,125.293 236.565,126.505 236.616 C 127.717 236.668,128.755 236.852,128.813 237.026 C 128.871 237.199,129.531 237.270,130.280 237.183 C 131.028 237.095,131.641 237.175,131.641 237.360 C 131.641 237.544,132.476 237.714,133.496 237.736 C 134.517 237.759,136.494 237.872,137.891 237.987 C 142.172 238.341,157.830 238.496,157.116 238.177 C 156.747 238.012,157.620 237.960,159.055 238.062 C 160.491 238.164,161.721 238.089,161.790 237.895 C 161.858 237.702,163.057 237.490,164.453 237.424 C 165.850 237.358,167.097 237.162,167.225 236.988 C 167.353 236.814,168.345 236.638,169.430 236.598 C 170.514 236.557,171.307 236.368,171.192 236.178 C 171.077 235.988,171.526 235.912,172.190 236.010 C 172.853 236.107,173.307 236.043,173.199 235.867 C 173.020 235.577,174.046 235.403,175.879 235.411 C 176.255 235.412,176.563 235.247,176.563 235.044 C 176.563 234.841,176.914 234.766,177.344 234.879 C 177.773 234.991,178.125 234.903,178.125 234.683 C 178.125 234.464,178.477 234.376,178.906 234.488 C 179.336 234.601,179.688 234.513,179.688 234.293 C 179.688 234.073,180.039 233.985,180.469 234.098 C 180.898 234.210,181.250 234.124,181.250 233.906 C 181.250 233.688,181.514 233.611,181.836 233.735 C 182.158 233.859,182.422 233.771,182.422 233.540 C 182.422 233.309,182.686 233.221,183.008 233.344 C 183.330 233.468,183.594 233.387,183.594 233.165 C 183.594 232.930,183.942 232.870,184.424 233.023 C 184.983 233.201,185.167 233.145,184.987 232.854 C 184.741 232.456,185.312 232.268,186.621 232.317 C 186.890 232.327,187.109 232.160,187.109 231.946 C 187.109 231.732,187.373 231.658,187.695 231.782 C 188.018 231.906,188.281 231.818,188.281 231.587 C 188.281 231.355,188.554 231.271,188.887 231.399 C 189.235 231.532,189.392 231.467,189.255 231.246 C 189.037 230.893,189.660 230.709,190.914 230.754 C 191.180 230.763,191.287 230.592,191.152 230.374 C 191.017 230.155,191.149 230.058,191.446 230.156 C 191.743 230.255,192.229 230.092,192.527 229.794 C 192.826 229.496,193.310 229.344,193.605 229.457 C 193.900 229.570,194.141 229.525,194.141 229.357 C 194.141 228.930,196.856 227.677,197.252 227.921 C 197.429 228.031,197.682 227.840,197.814 227.496 C 197.955 227.129,198.302 226.967,198.656 227.103 C 198.988 227.231,199.169 227.188,199.058 227.009 C 198.847 226.668,202.656 224.732,203.202 224.902 C 203.375 224.956,203.516 224.795,203.516 224.544 C 203.516 224.294,203.630 224.203,203.770 224.343 C 203.910 224.483,204.217 224.346,204.454 224.039 C 204.690 223.732,205.146 223.427,205.467 223.361 C 205.789 223.296,206.228 223.032,206.444 222.775 C 206.660 222.519,207.085 222.255,207.389 222.189 C 207.694 222.124,208.271 221.756,208.673 221.372 C 209.075 220.989,209.617 220.797,209.878 220.947 C 210.138 221.097,210.218 221.072,210.055 220.893 C 209.683 220.482,211.731 219.102,212.243 219.419 C 212.451 219.547,212.495 219.449,212.342 219.201 C 212.089 218.792,212.576 218.569,213.408 218.713 C 213.585 218.744,213.640 218.624,213.531 218.447 C 213.421 218.270,213.690 217.901,214.129 217.627 C 214.782 217.219,214.868 217.222,214.608 217.644 C 214.433 217.926,214.960 217.488,215.778 216.670 C 216.596 215.852,217.358 215.274,217.470 215.387 C 217.583 215.500,218.018 215.204,218.438 214.729 C 218.857 214.255,219.062 214.129,218.894 214.450 C 218.725 214.770,219.257 214.363,220.075 213.545 C 220.893 212.727,221.651 212.146,221.759 212.254 C 221.867 212.362,222.391 211.978,222.923 211.401 C 223.456 210.824,223.776 210.615,223.635 210.938 C 223.495 211.260,223.669 211.172,224.022 210.742 C 224.375 210.313,224.828 210.005,225.028 210.059 C 225.227 210.112,225.391 209.995,225.391 209.798 C 225.391 209.602,226.131 208.855,227.036 208.138 C 227.941 207.422,228.537 207.100,228.360 207.422 C 228.184 207.744,228.511 207.480,229.087 206.836 C 229.663 206.191,230.021 205.928,229.882 206.250 C 229.743 206.572,230.009 206.352,230.474 205.760 C 230.938 205.168,231.479 204.783,231.675 204.904 C 231.871 205.025,232.031 204.950,232.031 204.736 C 232.031 204.230,236.731 200.553,237.199 200.693 C 237.397 200.752,237.475 200.664,237.374 200.498 C 237.273 200.332,237.640 199.858,238.190 199.445 C 238.827 198.968,239.086 198.897,238.903 199.250 C 238.744 199.555,238.994 199.320,239.458 198.728 C 239.923 198.137,240.444 197.740,240.616 197.846 C 240.789 197.953,241.227 197.587,241.590 197.033 C 241.953 196.479,242.346 196.122,242.463 196.239 C 242.579 196.355,243.018 196.063,243.438 195.589 C 243.857 195.115,244.080 194.990,243.932 195.313 C 243.785 195.635,244.136 195.371,244.712 194.727 C 245.288 194.082,245.622 193.817,245.455 194.137 C 245.287 194.458,245.812 194.058,246.621 193.249 C 247.430 192.440,248.284 191.898,248.520 192.043 C 248.756 192.189,248.845 192.140,248.718 191.935 C 248.592 191.730,248.847 191.339,249.285 191.065 C 249.939 190.656,250.033 190.660,249.812 191.084 C 249.663 191.369,249.904 191.162,250.348 190.625 C 250.792 190.088,251.158 189.763,251.163 189.903 C 251.168 190.043,251.723 189.642,252.397 189.012 C 253.071 188.383,253.701 187.946,253.797 188.042 C 253.893 188.138,254.315 187.873,254.734 187.453 C 255.154 187.034,255.648 186.784,255.833 186.898 C 256.017 187.012,256.273 186.831,256.402 186.496 C 256.530 186.162,256.794 185.986,256.988 186.106 C 257.181 186.226,257.450 186.036,257.585 185.684 C 257.720 185.332,257.929 185.143,258.050 185.263 C 258.170 185.383,258.612 185.138,259.031 184.719 C 259.451 184.299,259.963 184.061,260.170 184.188 C 260.378 184.316,260.547 184.225,260.547 183.984 C 260.547 183.744,260.704 183.645,260.897 183.764 C 261.089 183.883,261.357 183.692,261.492 183.340 C 261.627 182.989,261.842 182.805,261.970 182.933 C 262.098 183.061,262.459 182.909,262.773 182.595 C 263.087 182.281,263.506 182.124,263.703 182.246 C 263.901 182.368,264.063 182.253,264.063 181.989 C 264.063 181.726,264.165 181.613,264.290 181.738 C 264.416 181.864,264.862 181.623,265.281 181.203 C 265.701 180.784,266.198 180.536,266.387 180.652 C 266.576 180.769,266.789 180.701,266.861 180.500 C 266.933 180.300,267.252 180.080,267.569 180.010 C 267.886 179.940,268.392 179.653,268.693 179.372 C 268.995 179.091,269.491 178.957,269.797 179.075 C 270.150 179.210,270.251 179.122,270.073 178.835 C 269.887 178.533,270.010 178.466,270.444 178.632 C 270.801 178.769,271.094 178.701,271.094 178.480 C 271.094 178.260,271.270 178.188,271.484 178.320 C 271.699 178.453,271.875 178.365,271.875 178.125 C 271.875 177.885,272.051 177.797,272.266 177.930 C 272.480 178.062,272.656 177.966,272.656 177.716 C 272.656 177.465,272.920 177.361,273.242 177.485 C 273.564 177.609,273.828 177.529,273.828 177.308 C 273.828 177.088,274.004 177.016,274.219 177.148 C 274.434 177.281,274.609 177.185,274.609 176.934 C 274.609 176.684,274.873 176.580,275.195 176.704 C 275.518 176.827,275.781 176.748,275.781 176.527 C 275.781 176.306,275.957 176.234,276.172 176.367 C 276.387 176.500,276.563 176.404,276.563 176.153 C 276.563 175.903,276.826 175.799,277.148 175.923 C 277.471 176.046,277.734 175.962,277.734 175.736 C 277.734 175.510,277.953 175.398,278.219 175.487 C 278.486 175.576,278.951 175.401,279.254 175.099 C 279.556 174.796,280.129 174.634,280.527 174.738 C 280.925 174.842,281.250 174.749,281.250 174.531 C 281.250 174.313,281.502 174.232,281.811 174.350 C 282.119 174.469,282.435 174.376,282.512 174.145 C 282.589 173.913,283.215 173.704,283.903 173.678 C 284.591 173.653,285.155 173.482,285.155 173.297 C 285.156 173.113,285.596 173.072,286.133 173.207 C 286.742 173.360,287.109 173.287,287.109 173.012 C 287.109 172.737,287.477 172.664,288.086 172.817 C 288.676 172.965,289.063 172.895,289.063 172.640 C 289.063 172.391,289.543 172.294,290.237 172.404 C 290.978 172.521,291.320 172.441,291.164 172.189 C 291.001 171.926,291.465 171.882,292.529 172.062 C 293.650 172.251,294.141 172.196,294.141 171.880 C 294.141 171.617,294.594 171.473,295.215 171.538 C 295.806 171.600,296.465 171.544,296.680 171.412 C 297.295 171.037,314.502 171.329,314.785 171.720 C 314.925 171.913,316.006 172.123,317.188 172.187 C 318.369 172.251,319.388 172.453,319.452 172.634 C 319.516 172.815,319.912 172.874,320.331 172.765 C 320.757 172.653,321.094 172.761,321.094 173.009 C 321.094 173.294,321.464 173.359,322.129 173.193 C 322.875 173.005,323.084 173.062,322.877 173.396 C 322.671 173.729,322.875 173.788,323.600 173.606 C 324.189 173.458,324.609 173.518,324.609 173.749 C 324.609 173.967,324.961 174.054,325.391 173.941 C 325.820 173.829,326.172 173.917,326.172 174.137 C 326.172 174.356,326.551 174.437,327.014 174.316 C 327.628 174.156,327.774 174.230,327.551 174.590 C 327.326 174.954,327.465 175.014,328.076 174.820 C 328.535 174.675,328.906 174.727,328.906 174.937 C 328.906 175.146,329.285 175.218,329.749 175.097 C 330.288 174.956,330.499 175.026,330.334 175.293 C 330.172 175.554,330.366 175.633,330.859 175.504 C 331.289 175.392,331.641 175.490,331.641 175.723 C 331.641 175.958,331.930 176.036,332.291 175.898 C 332.727 175.730,332.848 175.798,332.659 176.105 C 332.480 176.394,332.635 176.539,333.083 176.500 C 334.436 176.383,335.201 176.565,334.964 176.949 C 334.827 177.170,334.984 177.236,335.331 177.102 C 335.665 176.974,335.938 177.045,335.938 177.259 C 335.938 177.473,336.157 177.639,336.426 177.629 C 337.681 177.583,338.307 177.768,338.089 178.121 C 337.952 178.342,338.109 178.407,338.456 178.274 C 338.791 178.146,339.063 178.246,339.063 178.497 C 339.063 178.747,339.238 178.844,339.453 178.711 C 339.668 178.578,339.844 178.650,339.844 178.871 C 339.844 179.092,340.085 179.180,340.379 179.067 C 340.674 178.954,341.159 179.105,341.457 179.403 C 341.755 179.702,342.242 179.865,342.538 179.766 C 342.897 179.646,342.974 179.754,342.767 180.088 C 342.574 180.402,342.613 180.493,342.873 180.333 C 343.463 179.968,344.578 180.468,344.273 180.961 C 344.129 181.195,344.207 181.255,344.455 181.102 C 345.002 180.764,349.609 183.054,349.609 183.664 C 349.609 183.912,349.720 184.004,349.854 183.870 C 350.186 183.538,352.344 184.682,352.344 185.189 C 352.344 185.411,352.520 185.484,352.734 185.352 C 352.949 185.219,353.125 185.307,353.125 185.547 C 353.125 185.787,353.302 185.874,353.518 185.740 C 353.735 185.607,354.017 185.771,354.145 186.106 C 354.274 186.440,354.536 186.617,354.728 186.498 C 354.921 186.379,355.078 186.479,355.078 186.719 C 355.078 186.959,355.247 187.051,355.455 186.923 C 355.662 186.795,356.156 187.015,356.553 187.413 C 356.950 187.810,357.484 188.065,357.739 187.980 C 357.994 187.895,358.203 188.016,358.203 188.249 C 358.203 189.028,359.236 188.683,360.225 187.573 C 360.995 186.709,361.132 186.279,360.867 185.563 C 360.682 185.062,360.619 184.563,360.728 184.455 C 360.836 184.346,360.620 184.007,360.248 183.701 C 359.875 183.395,359.799 183.262,360.079 183.405 C 360.359 183.548,359.304 182.368,357.735 180.783 C 356.166 179.198,354.795 177.906,354.688 177.912 C 354.213 177.940,347.351 171.920,347.587 171.683 C 347.733 171.538,347.657 171.478,347.419 171.549 C 346.885 171.711,343.359 169.239,343.359 168.703 C 343.359 168.489,343.196 168.414,342.995 168.538 C 342.795 168.662,342.384 168.410,342.082 167.978 C 341.779 167.546,341.443 167.281,341.335 167.389 C 341.227 167.497,340.667 167.149,340.091 166.615 C 339.515 166.082,338.960 165.641,338.858 165.635 C 338.756 165.630,338.486 165.625,338.258 165.625 C 338.031 165.625,337.970 165.422,338.123 165.174 C 338.277 164.926,338.240 164.823,338.042 164.946 C 337.524 165.266,334.710 163.480,335.059 163.052 C 335.220 162.856,335.197 162.820,335.009 162.973 C 334.567 163.331,332.422 162.228,332.422 161.644 C 332.422 161.398,332.312 161.308,332.178 161.442 C 331.845 161.774,328.906 160.241,328.906 159.735 C 328.906 159.511,328.730 159.438,328.516 159.570 C 328.301 159.703,328.125 159.615,328.125 159.375 C 328.125 159.135,327.949 159.047,327.734 159.180 C 327.520 159.312,327.344 159.225,327.344 158.984 C 327.344 158.744,327.168 158.656,326.953 158.789 C 326.738 158.922,326.563 158.850,326.563 158.629 C 326.563 158.408,326.270 158.340,325.912 158.477 C 325.441 158.658,325.350 158.585,325.582 158.209 C 325.787 157.878,325.750 157.785,325.480 157.952 C 325.004 158.247,323.047 157.465,323.047 156.981 C 323.047 156.807,322.806 156.758,322.511 156.871 C 322.217 156.984,321.732 156.832,321.434 156.534 C 321.135 156.236,320.673 156.065,320.407 156.154 C 320.140 156.242,319.922 156.114,319.922 155.869 C 319.922 155.623,319.746 155.531,319.531 155.664 C 319.316 155.797,319.141 155.725,319.141 155.504 C 319.141 155.283,318.877 155.204,318.555 155.327 C 318.232 155.451,317.969 155.363,317.969 155.132 C 317.969 154.901,317.705 154.813,317.383 154.937 C 317.061 155.061,316.797 154.984,316.797 154.766 C 316.797 154.548,316.418 154.469,315.955 154.590 C 315.415 154.731,315.205 154.661,315.369 154.395 C 315.531 154.133,315.337 154.055,314.844 154.184 C 314.414 154.296,314.063 154.197,314.063 153.964 C 314.063 153.731,313.799 153.641,313.477 153.765 C 313.154 153.889,312.891 153.812,312.891 153.594 C 312.891 153.376,312.539 153.290,312.109 153.402 C 311.680 153.515,311.328 153.427,311.328 153.207 C 311.328 152.987,310.977 152.899,310.547 153.012 C 310.117 153.124,309.765 153.064,309.763 152.878 C 309.762 152.691,309.055 152.512,308.192 152.480 C 307.329 152.447,306.320 152.289,305.948 152.127 C 305.577 151.965,304.966 151.871,304.590 151.918 C 304.214 151.964,303.906 151.805,303.906 151.563 C 303.906 151.264,303.346 151.208,302.148 151.388 C 301.182 151.533,300.390 151.499,300.390 151.314 C 300.389 150.919,285.550 150.849,285.307 151.243 M91.026 151.282 C 91.330 151.631,97.741 153.952,97.916 153.777 C 97.998 153.695,96.699 153.134,95.029 152.532 C 90.953 151.063,90.789 151.011,91.026 151.282 M77.734 153.658 C 77.734 153.765,78.262 154.229,78.906 154.688 C 79.551 155.146,80.078 155.434,80.078 155.327 C 80.078 155.219,79.551 154.756,78.906 154.297 C 78.262 153.838,77.734 153.550,77.734 153.658 M101.554 155.110 C 103.375 155.740,105.037 156.199,105.247 156.129 C 105.634 156.000,99.190 153.881,98.576 153.936 C 98.392 153.952,99.732 154.481,101.554 155.110 M80.664 155.736 C 81.120 156.214,87.369 160.367,89.648 161.707 C 92.397 163.322,90.563 161.930,86.328 159.187 C 80.955 155.707,80.197 155.245,80.664 155.736 M107.456 156.805 C 107.705 157.054,115.497 158.990,116.086 158.949 C 116.591 158.914,108.354 156.671,107.650 156.651 C 107.453 156.645,107.366 156.714,107.456 156.805 M116.797 159.095 C 117.088 159.414,125.265 160.943,126.485 160.906 C 127.065 160.888,125.781 160.558,123.633 160.173 C 121.484 159.788,119.023 159.339,118.164 159.176 C 117.305 159.014,116.689 158.977,116.797 159.095 M159.961 159.591 C 158.672 159.881,156.914 160.219,156.055 160.343 C 155.195 160.467,153.262 160.743,151.758 160.957 C 148.280 161.452,139.177 161.599,132.617 161.266 C 128.446 161.054,128.062 161.075,130.469 161.384 C 134.789 161.938,147.685 161.933,151.953 161.376 C 155.767 160.878,162.924 159.472,163.236 159.160 C 163.509 158.887,162.511 159.018,159.961 159.591 M91.406 162.624 C 91.406 162.819,96.257 165.684,98.730 166.949 C 101.082 168.152,100.024 167.273,97.363 165.813 C 95.913 165.017,93.979 163.929,93.066 163.396 C 92.153 162.862,91.406 162.515,91.406 162.624 M100.391 167.766 C 100.391 168.273,112.037 173.640,112.384 173.293 C 112.463 173.214,111.511 172.745,110.268 172.251 C 109.025 171.757,106.294 170.502,104.199 169.462 C 102.104 168.422,100.391 167.659,100.391 167.766 M112.948 173.625 C 113.223 173.900,119.186 175.958,123.187 177.159 C 127.410 178.427,135.156 180.058,135.156 179.680 C 135.156 179.528,133.794 179.186,132.129 178.919 C 128.761 178.380,121.457 176.365,116.453 174.595 C 113.169 173.434,112.599 173.276,112.948 173.625 M174.153 178.267 C 171.431 178.941,169.090 179.606,168.951 179.746 C 168.812 179.886,170.512 179.572,172.728 179.049 C 178.154 177.769,179.688 177.347,179.688 177.133 C 179.688 176.892,179.796 176.870,174.153 178.267 M136.328 180.081 C 137.294 180.387,141.297 180.600,140.983 180.328 C 140.894 180.251,139.590 180.094,138.086 179.979 C 136.497 179.858,135.761 179.901,136.328 180.081 M164.258 180.149 C 163.184 180.353,158.877 180.654,154.688 180.820 L 147.070 181.120 152.745 181.185 C 157.749 181.242,160.925 181.023,166.602 180.230 C 167.461 180.110,168.237 179.939,168.327 179.850 C 168.591 179.587,166.363 179.751,164.258 180.149 M141.439 180.612 C 141.528 180.691,142.460 180.848,143.510 180.961 C 144.676 181.086,145.208 181.033,144.877 180.823 C 144.370 180.503,141.085 180.301,141.439 180.612 M134.269 274.891 C 134.962 274.978,136.193 274.979,137.003 274.894 C 137.813 274.810,137.246 274.739,135.742 274.738 C 134.238 274.736,133.575 274.805,134.269 274.891 " stroke="none" fill="#7ccc8c" fill-rule="evenodd"></path><path id="path4" d="M277.051 101.461 C 278.286 101.538,280.308 101.538,281.543 101.461 C 282.778 101.383,281.768 101.320,279.297 101.320 C 276.826 101.320,275.815 101.383,277.051 101.461 M288.384 150.671 C 288.978 150.761,289.857 150.758,290.337 150.666 C 290.818 150.573,290.332 150.499,289.258 150.502 C 288.184 150.505,287.791 150.581,288.384 150.671 M139.746 161.614 C 140.659 161.696,142.153 161.696,143.066 161.614 C 143.979 161.532,143.232 161.465,141.406 161.465 C 139.580 161.465,138.833 161.532,139.746 161.614 M298.735 171.761 C 299.221 171.854,299.924 171.851,300.298 171.753 C 300.671 171.655,300.273 171.579,299.414 171.583 C 298.555 171.587,298.249 171.667,298.735 171.761 M308.110 171.761 C 308.596 171.854,309.299 171.851,309.673 171.753 C 310.046 171.655,309.648 171.579,308.789 171.583 C 307.930 171.587,307.624 171.667,308.110 171.761 M149.902 181.539 C 151.245 181.615,153.442 181.615,154.785 181.539 C 156.128 181.463,155.029 181.401,152.344 181.401 C 149.658 181.401,148.560 181.463,149.902 181.539 M133.887 217.867 C 135.229 217.944,137.427 217.944,138.770 217.867 C 140.112 217.791,139.014 217.729,136.328 217.729 C 133.643 217.729,132.544 217.791,133.887 217.867 M137.598 238.551 C 137.974 238.649,138.589 238.649,138.965 238.551 C 139.341 238.452,139.033 238.372,138.281 238.372 C 137.529 238.372,137.222 238.452,137.598 238.551 M145.605 238.962 C 147.163 239.036,149.712 239.036,151.270 238.962 C 152.827 238.888,151.553 238.827,148.438 238.827 C 145.322 238.827,144.048 238.888,145.605 238.962 M139.941 299.488 C 140.317 299.586,140.933 299.586,141.309 299.488 C 141.685 299.390,141.377 299.309,140.625 299.309 C 139.873 299.309,139.565 299.390,139.941 299.488 " stroke="none" fill="#c9ebd6" fill-rule="evenodd"></path></g></svg>