<?xml version="1.0" encoding="UTF-8" standalone="no"?>
<svg xmlns="http://www.w3.org/2000/svg" version="1.1" width="110.42109" height="109.8461" viewBox="0 0 110.42109 109.8461">
  <defs>
    <linearGradient id="python-gradient1" x1="0%" y1="0%" x2="100%" y2="100%">
      <stop offset="0%" style="stop-color:#5a9fd4;stop-opacity:1"/>
      <stop offset="100%" style="stop-color:#306998;stop-opacity:1"/>
    </linearGradient>
    <linearGradient id="python-gradient2" x1="0%" y1="0%" x2="100%" y2="100%">
      <stop offset="0%" style="stop-color:#ffd43b;stop-opacity:1"/>
      <stop offset="100%" style="stop-color:#ffe873;stop-opacity:1"/>
    </linearGradient>
  </defs>
  <g transform="translate(-473.36088,-251.72485)">
    <g>
      <g>
        <path style="fill:url(#python-gradient1)" d="m 528.18001,251.72485 c -3.49824,0 -6.92938,0.28096 -10.20385,0.78867 -9.64187,1.49389 -11.38741,5.26609 -11.38741,11.82993 v 8.66583 h 22.7748 v 2.89527 h -22.7748 -8.55578 c -6.61982,0 -12.41924,3.97946 -14.22988,11.55145 -2.09868,8.6814 -2.19145,14.09579 0,23.16247 1.62648,6.75695 5.50853,11.55145 12.12835,11.55145 h 7.8405 v -10.40552 c 0,-7.51246 6.49597,-14.13542 14.22989,-14.13542 h 22.74927 c 6.33019,0 11.38741,-5.21128 11.38741,-11.57697 v -21.69235 c 0,-6.18045 -5.21147,-10.82041 -11.38741,-11.8299 -3.91188,-0.63891 -7.96943,-0.92806 -11.46732,-0.78869 z m -12.23009,6.96896 c 2.35026,0 4.27071,1.95063 4.27071,4.35194 0,2.39337 -1.92045,4.32641 -4.27071,4.32641 -2.35819,0 -4.27072,-1.93304 -4.27072,-4.32641 0,-2.40131 1.91253,-4.35194 4.27072,-4.35194 z"/>
        <path style="fill:url(#python-gradient2)" d="m 545.66338,274.65263 v 10.11869 c 0,7.83262 -6.64355,14.42225 -14.22989,14.42225 h -22.74927 c -6.22849,0 -11.38741,5.33513 -11.38741,11.57697 v 21.69235 c 0,6.18046 5.37056,9.81705 11.38741,11.8299 7.19568,2.40717 14.09527,2.84133 22.74927,0 5.7268,-1.87702 11.3874,-5.64945 11.3874,-11.8299 v -8.66583 h -22.74927 v -2.89527 h 22.74927 11.38741 c 6.61982,0 9.08672,-4.61841 11.38741,-11.55145 2.37469,-7.13996 2.27356,-14.00388 0,-23.16247 -1.63442,-6.58991 -4.75513,-11.55145 -11.38741,-11.55145 z m -12.7921,54.75308 c 2.35818,0 4.27072,1.93303 4.27072,4.32641 0,2.4013 -1.91254,4.35194 -4.27072,4.35194 -2.35025,0 -4.27071,-1.95064 -4.27071,-4.35194 0,-2.39338 1.92046,-4.32641 4.27071,-4.32641 z"/>
      </g>
    </g>
  </g>
</svg>